<?xml version="1.0" encoding="utf-8"?>
<!-- Generator: Adobe Illustrator 16.0.3, SVG Export Plug-In . SVG Version: 6.00 Build 0)  -->
<!DOCTYPE svg PUBLIC "-//W3C//DTD SVG 1.1//EN" "http://www.w3.org/Graphics/SVG/1.1/DTD/svg11.dtd">
<svg version="1.1" id="Layer_1" xmlns="http://www.w3.org/2000/svg" xmlns:xlink="http://www.w3.org/1999/xlink" x="0px" y="0px"
	 width="156.667px" height="84.039px" viewBox="0 0 156.667 84.039" enable-background="new 0 0 156.667 84.039"
	 xml:space="preserve">
<g id="Layer_1_1_">
</g>
<g id="Layer_4" display="none">
	
		<image display="inline" overflow="visible" enable-background="new    " width="1360" height="769" xlink:href="EFC90597.jpeg"  transform="matrix(1 0 0 0.9987 -130.6665 -93.3335)">
	</image>
</g>
<g id="Layer_3" display="none">
	<g display="inline">
		<path fill="#A0562D" d="M283.007,440.154c76.131,0.996,138.215-61.916,139.099-136.608
			c0.922-77.864-61.477-139.864-136.479-140.979c-80.399-1.195-141.283,63.97-141.541,138.468
			C143.822,377.068,206.408,441.027,283.007,440.154z M351.584,161.607c7.417,10.818,14.804,15.17,24.567,14.695
			c-2.767-3.232-5.413-6.39-8.143-9.473c-0.718-0.811-1.597-1.766-2.566-2.018C361.034,163.66,356.565,162.734,351.584,161.607z
			 M188.431,177.139c0.158,0.168,0.318,0.338,0.479,0.506c3.236-0.801,6.438-1.838,9.721-2.34c3.455-0.527,5.884-2.222,7.902-4.957
			c1.907-2.584,4.079-4.974,6.135-7.449c-4.285,0.369-8.084,1.234-11.854,2.205c-1.154,0.297-2.564,0.584-3.296,1.387
			C194.375,169.936,191.44,173.572,188.431,177.139z M378.282,430.17c9.282,0.836,17.926-0.656,23.387-9.629
			C392.082,419.416,383.698,421.543,378.282,430.17z M148.753,216.091c8.276-8.554,10.748-15.979,8.229-23.917
			C148.578,197.96,147.201,206.438,148.753,216.091z M441.543,329.507c7.295-5.995,12.019-13.016,9.512-22.991
			C443.8,312.45,439.061,319.452,441.543,329.507z M428.986,368.121c8.669-3.598,15.508-8.958,16.102-19.329
			C436.181,352.18,429.832,357.954,428.986,368.121z M363.313,180.633c8.342,7.208,16.296,9.01,25.004,5.828
			C379.476,179.191,374.508,178.008,363.313,180.633z M165.412,391.93c-1.604,9.428,0.118,17.801,8.498,23.609
			C175.357,406.253,173.939,397.793,165.412,391.93z M163.88,420.21c5.656,9.323,14.313,10.776,24.164,9.907
			c-3.104-2.803-6.102-5.58-9.196-8.24c-0.622-0.535-1.604-0.828-2.449-0.893C172.283,420.667,168.16,420.463,163.88,420.21z
			 M443.277,289.594c6.474-10.5,7.422-17.511,3.443-24.992C441.026,272.202,438.4,280.363,443.277,289.594z M114.764,307.498
			c-0.296,0.132-0.591,0.264-0.888,0.395c0.483,4.399,0.008,9.226,1.72,13.08c1.727,3.894,5.622,6.824,8.96,10.627
			c0-3.72,0.115-6.51-0.043-9.283c-0.094-1.629-0.139-3.602-1.039-4.781C120.792,314.02,117.697,310.82,114.764,307.498z
			 M144.039,251.675c-9.271,3.991-15.369,10.149-15.701,20.759c3.681-2.549,7.414-5.103,11.1-7.721
			c0.506-0.359,0.953-0.988,1.141-1.582C141.766,259.359,142.873,255.564,144.039,251.675z M411.452,375.861
			c-6.992,7.599-9.229,17.141-5.893,24.354C413.271,393.691,413.956,385.197,411.452,375.861z M437.862,367.891
			c-11.574,4.524-16.684,9.692-17.951,17.844C429.003,383.18,435.988,378.193,437.862,367.891z M402.375,201.119
			c-6.354-8.262-15.349-11.706-24.092-9.48c2.788,2.516,5.487,5.022,8.279,7.422c0.717,0.617,1.698,1.203,2.602,1.277
			C393.385,200.689,397.622,200.857,402.375,201.119z M133.476,252.824c8.972-2.699,16.136-7.414,17.675-17.58
			C142.188,237.895,135.055,242.594,133.476,252.824z M143.625,208.266c-6.804,8.276-8.369,16.664-4.814,24.838
			C146.419,226.203,146.235,217.479,143.625,208.266z M400.386,391.891c-8.681,5.942-9.825,14.481-8.603,23.918
			C399.956,408.451,401.694,403.591,400.386,391.891z M205.007,440.969c-7.979-7.438-16.262-9.365-25.281-6.09
			c2.777,1.881,5.419,3.748,8.146,5.479c1.096,0.693,2.394,1.561,3.578,1.531C195.789,441.783,200.117,441.332,205.007,440.969z
			 M407.722,191.079c-1.465,9.335,0.056,17.706,8.514,23.421C417.486,205.205,416.258,196.73,407.722,191.079z M160.755,219.045
			c-9.37,1.646-16.791,5.932-19.512,15.762C150.384,232.997,158.121,229.141,160.755,219.045z M140.037,368.102
			c4.594-8.306,5.769-16.84-0.22-25C135.39,351.271,133.867,359.768,140.037,368.102z M429.781,323.745
			c-4.66,9.19-1.979,17.397,3.794,24.89C438.033,339.544,435.625,331.307,429.781,323.745z M120.96,349.691
			c0.801,10.654,7.42,16.164,16.779,19.789c-1.094-3.016-2.051-5.83-3.144-8.592c-0.562-1.42-1.013-3.24-2.118-4.021
			C128.794,354.27,124.835,352.063,120.96,349.691z M115.003,287.146c-3.25,9.813,0.813,17.336,7.432,23.861
			C125.73,301.389,122.016,293.755,115.003,287.146z M129.569,350.904c0.663-10.592-4.798-17.141-13.651-21.963
			c0.75,3.617,1.386,6.994,2.179,10.332c0.271,1.139,0.659,2.488,1.466,3.217C122.783,345.395,126.188,348.093,129.569,350.904z
			 M368.388,445.947c-9.166-3.688-17.732-3.57-25.185,3.566C353.865,453.084,358.421,452.451,368.388,445.947z M385.709,434.553
			c-9.124-2.229-17.874-1.904-24.471,6.148C370.405,443.01,379.062,442.4,385.709,434.553z M403.913,198.79
			c0.148-9.813-2.682-18.031-11.959-22.537C392.589,188.395,394.493,192.012,403.913,198.79z M358.592,427.855
			c-10.15,3.877-16.1,10.807-16.499,18.834C351.965,444.564,356.417,437.293,358.592,427.855z M154.794,377.042
			c-2.215,9.063-1.834,17.703,6.213,24.192C163.52,392.085,162.509,383.625,154.794,377.042z M424.415,234.176
			c-5.682-11.33-10.756-15.221-20.748-16.188c1.855,3.059,3.591,6.05,5.474,8.947c0.636,0.979,1.496,2.082,2.512,2.5
			C415.65,231.08,419.752,232.473,424.415,234.176z M388.156,405.055c-2.922,2.647-5.659,5.039-8.276,7.557
			c-0.756,0.726-1.486,1.748-1.681,2.742c-0.825,4.238-1.444,8.518-2.129,12.703C385.514,423.424,388.303,415.241,388.156,405.055z
			 M417.183,384.331c6.895-7.759,6.047-16.319,2.496-24.952C413.077,367.053,413.361,375.589,417.183,384.331z M128.357,369.339
			c2.082,9.899,8.71,15.238,17.999,17.396C144.739,376.477,137.294,372.003,128.357,369.339z M206.802,427.756
			c4.402,12.504,8.345,16.85,17.094,19.074C221.294,436.133,217.239,431.543,206.802,427.756z M450.512,285.588
			c-6.532,6.746-10.785,14.303-7.152,24.038C449.937,302.997,453.946,295.365,450.512,285.588z M191.354,417.904
			c1.228,9.33,5.011,17.188,14.845,20.281C204.892,428.865,201.164,420.986,191.354,417.904z M374.789,417.793
			c-10.232,3.229-14.018,11.031-15.302,20.982c3.247-2.162,6.344-4.113,9.301-6.258c0.919-0.666,1.743-1.75,2.123-2.818
			C372.321,425.75,373.527,421.727,374.789,417.793z M322.859,452.363c10.487-0.482,15.646-7.486,19.364-15.971
			C331.9,437.057,326.369,443.693,322.859,452.363z M130.923,252c1.283-2.623,2.568-5.08,3.693-7.605
			c0.713-1.6,1.859-3.396,1.645-4.94c-0.622-4.47-1.836-8.856-2.803-13.216C126.294,234.133,126.948,242.807,130.923,252z
			 M222.449,449.465c-7.396-7.213-16.019-7.08-24.835-3.674C204.916,452.908,213.561,452.605,222.449,449.465z M243.05,455.23
			c-3.768-1.377-6.768-2.514-9.797-3.568c-1.238-0.43-2.689-1.225-3.783-0.918c-4.432,1.236-8.762,2.836-13.932,4.572
			c4.5,1.648,8.146,3.021,11.828,4.295c0.674,0.234,1.551,0.271,2.229,0.057C233.828,458.332,238.031,456.898,243.05,455.23z
			 M122.313,291.08c4.735-9.402,2.222-17.652-3.967-25.415C115.076,277.788,115.326,279.377,122.313,291.08z M349.705,455.127
			c-4.796-1.6-9.102-4.133-13.426-4.164c-4.278-0.033-8.576,2.459-13.595,4.076C335.894,460.451,339.881,460.441,349.705,455.127z
			 M407.762,402.416c10.469-1.29,18.149-6.964,20.033-14.723C418.722,389.167,410.776,392.421,407.762,402.416z M415.891,404.456
			c-12.279,1.59-18.88,5.556-21.685,12.979C403.675,416.909,411.875,414.02,415.891,404.456z M160.824,199.57
			c9.262-4.557,11.877-12.871,11.719-22.301C163.393,181.824,160.693,190.096,160.824,199.57z M176.417,187.423
			c9.523,2.419,18.014,1.63,24.64-6.11C191.626,178.438,185.14,180.003,176.417,187.423z M391.601,203.352
			c6.497,9.848,13.516,13.766,22.813,12.988c-2.141-2.568-4.158-5.08-6.283-7.496c-0.855-0.975-1.818-2.222-2.952-2.521
			C400.898,205.191,396.527,204.396,391.601,203.352z M172.779,204.738c-11.386,0.857-18.808,5.359-21.699,12.99
			C163.152,216.469,167.477,213.91,172.779,204.738z M125.5,271.85c4.748-11.379,4.299-17.994-1.558-26.193
			c-1.06,3.4-2.139,6.654-3.063,9.951c-0.315,1.129-0.629,2.5-0.274,3.529C122.007,263.206,123.675,267.184,125.5,271.85z
			 M440.292,309.982c2.072-10.096-2.256-17.418-9.937-23.256C429.263,297.158,431.527,302.447,440.292,309.982z M137.43,387.294
			c4.517,9.752,12.409,15.324,21.026,14.878c-1.365-2.046-2.588-4.016-3.949-5.883c-1.227-1.682-2.283-3.986-3.979-4.727
			C146.425,389.768,141.994,388.723,137.43,387.294z M223.492,436.365c5.047,10.766,11.178,15.744,19.568,16.064
			C237.521,441.313,233.212,437.729,223.492,436.365z M449.463,327.811c-8.141,4.67-13.82,11.065-12.881,21.278
			C444.807,344.45,450.28,337.928,449.463,327.811z M135.027,288.175c-7.615,5.767-11.599,13.246-9.559,23.037
			C132.71,305.338,137.496,298.204,135.027,288.175z M177.44,405.643c-0.084,10.457,4.179,18.387,11.927,22.346
			C189.255,418.578,186.923,410.098,177.44,405.643z M125.083,291.576c9.666-5.594,12.722-10.535,13.508-21.836
			C129.375,274.947,126.02,280.371,125.083,291.576z M440.198,290.46c0.6-10.567-4.646-17.198-13.542-21.849
			c0.647,3.369,1.186,6.539,1.893,9.673c0.281,1.259,0.608,2.786,1.476,3.581C433.287,284.865,436.782,287.611,440.198,290.46z
			 M132.587,349.934c5.601-7.521,8.246-15.74,3.49-24.914C130.384,332.705,127.869,340.941,132.587,349.934z M149.703,404.26
			c4.188,9.768,12.377,12.702,22.506,13.211c-2.566-3.113-4.857-5.965-7.242-8.734c-0.625-0.725-1.463-1.526-2.338-1.734
			C158.318,405.979,153.962,405.145,149.703,404.26z M413.507,233.979c4.208,11.11,9.184,15.752,18.331,17.422
			C430.051,241.395,422.953,236.568,413.507,233.979z M189.576,164.785c-9.767,3.305-13.457,11.014-14.582,20.227
			C184.648,181.807,188.583,174.27,189.576,164.785z M426.26,232.166c2.973-9.238,2.58-17.734-4.947-24.635
			C418.205,218.221,419.236,223.447,426.26,232.166z M389.606,184.018c-0.949-9.898-6.29-17.164-14.804-20.111
			C376.193,173.193,379.824,180.947,389.606,184.018z M438.649,329.548c1.838-10.87-0.743-18.698-7.529-23.813
			C427.765,315.25,431.721,322.732,438.649,329.548z M426.173,367.829c5.261-11.313,5.138-18.229-0.286-26.229
			c-1.236,3.328-2.478,6.529-3.602,9.771c-0.353,1.018-0.786,2.259-0.507,3.197C423.041,358.814,424.542,362.988,426.173,367.829z
			 M431.705,225.109c-3.526,12.039-2.661,19.131,2.934,25.055C438.032,241.423,438.902,232.807,431.705,225.109z M146.686,360.486
			c-4.022,8.963-4.133,17.486,2.599,25.146C153.25,374.752,152.739,369.706,146.686,360.486z M439.953,269.868
			c5.472-10.175,5.764-17.638,1.041-25.188C435.756,252.805,434.455,261.294,439.953,269.868z M134.684,306.686
			c-6.72,6.705-10.541,14.367-7.197,23.943C134.464,324.1,137.716,316.262,134.684,306.686z M163.029,201.689
			c9.461,1.142,17.689-0.942,23.068-9.51C176.794,191.284,168.371,192.891,163.029,201.689z M436.915,270.583
			c-0.133-10.278-6.467-16.063-15.053-19.808C421.929,261.003,428.4,266.688,436.915,270.583z"/>
		<path fill="#A0562D" d="M283.007,440.154c-76.6,0.873-139.186-63.086-138.922-139.121
			c0.258-74.498,61.142-139.663,141.541-138.469c75.004,1.115,137.401,63.117,136.479,140.98
			C421.222,378.238,359.138,441.15,283.007,440.154z M282.787,166.811c-72.225,0-135.021,57.612-134.994,135.088
			c0.027,74.84,59.721,134.855,135.271,134.771c75.181-0.08,134.843-60.093,134.834-134.895
			C417.887,225.023,355.71,166.836,282.787,166.811z"/>
		<path fill="#A0562D" d="M351.584,161.607c4.98,1.127,9.449,2.053,13.858,3.205c0.971,0.252,1.85,1.207,2.566,2.018
			c2.729,3.083,5.376,6.24,8.143,9.473C366.389,176.777,359.001,172.426,351.584,161.607z"/>
		<path fill="#A0562D" d="M188.431,177.139c3.009-3.566,5.943-7.203,9.086-10.648c0.732-0.803,2.141-1.088,3.296-1.387
			c3.771-0.971,7.567-1.836,11.853-2.205c-2.055,2.476-4.227,4.865-6.133,7.449c-2.021,2.734-4.447,4.428-7.904,4.957
			c-3.282,0.5-6.482,1.539-9.721,2.34C188.75,177.477,188.589,177.307,188.431,177.139z"/>
		<path fill="#A0562D" d="M378.282,430.17c5.416-8.627,13.8-10.755,23.387-9.629C396.208,429.514,387.564,431.006,378.282,430.17z"
			/>
		<path fill="#A0562D" d="M148.753,216.091c-1.553-9.653-0.176-18.13,8.229-23.917C159.501,200.111,157.03,207.537,148.753,216.091z
			"/>
		<path fill="#A0562D" d="M441.543,329.507c-2.482-10.056,2.257-17.058,9.511-22.991
			C453.562,316.492,448.838,323.512,441.543,329.507z"/>
		<path fill="#A0562D" d="M428.986,368.121c0.846-10.167,7.195-15.939,16.102-19.329
			C444.494,359.163,437.655,364.523,428.986,368.121z"/>
		<path fill="#A0562D" d="M363.313,180.633c11.195-2.625,16.163-1.441,25.004,5.828C379.609,189.643,371.655,187.84,363.313,180.633
			z"/>
		<path fill="#A0562D" d="M165.412,391.93c8.528,5.863,9.945,14.323,8.498,23.609C165.53,409.73,163.807,401.357,165.412,391.93z"/>
		<path fill="#A0562D" d="M163.88,420.21c4.279,0.253,8.402,0.456,12.519,0.774c0.843,0.064,1.827,0.357,2.449,0.893
			c3.096,2.66,6.092,5.438,9.196,8.24C178.193,430.986,169.537,429.533,163.88,420.21z"/>
		<path fill="#A0562D" d="M443.277,289.594c-4.877-9.23-2.251-17.393,3.443-24.992C450.699,272.083,449.75,279.094,443.277,289.594z
			"/>
		<path fill="#A0562D" d="M114.764,307.498c2.934,3.322,6.028,6.521,8.711,10.036c0.899,1.181,0.946,3.151,1.039,4.78
			c0.157,2.774,0.043,5.564,0.043,9.283c-3.338-3.802-7.233-6.732-8.96-10.625c-1.711-3.855-1.236-8.682-1.721-13.082
			C114.171,307.76,114.466,307.629,114.764,307.498z"/>
		<path fill="#A0562D" d="M144.039,251.675c-1.166,3.89-2.272,7.685-3.461,11.456c-0.188,0.594-0.635,1.223-1.142,1.582
			c-3.687,2.618-7.419,5.172-11.101,7.721C128.669,261.824,134.767,255.666,144.039,251.675z"/>
		<path fill="#A0562D" d="M411.452,375.861c2.504,9.336,1.819,17.83-5.893,24.354C402.223,393.001,404.458,383.459,411.452,375.861z
			"/>
		<path fill="#A0562D" d="M437.862,367.891c-1.874,10.303-8.857,15.289-17.951,17.844
			C421.178,377.583,426.288,372.416,437.862,367.891z"/>
		<path fill="#A0562D" d="M402.375,201.119c-4.755-0.262-8.99-0.43-13.211-0.781c-0.902-0.074-1.885-0.66-2.602-1.277
			c-2.792-2.399-5.491-4.906-8.279-7.422C387.028,189.414,396.021,192.857,402.375,201.119z"/>
		<path fill="#A0562D" d="M133.476,252.824c1.579-10.23,8.713-14.93,17.675-17.58C149.612,245.41,142.448,250.125,133.476,252.824z"
			/>
		<path fill="#A0562D" d="M143.619,208.266c2.616,9.213,2.801,17.938-4.81,24.838C135.255,224.93,136.82,216.542,143.619,208.266z"
			/>
		<path fill="#A0562D" d="M400.386,391.891c1.308,11.7-0.432,16.561-8.603,23.918C390.561,406.373,391.707,397.833,400.386,391.891z
			"/>
		<path fill="#A0562D" d="M205.007,440.969c-4.891,0.361-9.221,0.813-13.557,0.92c-1.186,0.029-2.482-0.838-3.578-1.531
			c-2.729-1.73-5.371-3.598-8.147-5.479C188.746,431.604,197.028,433.531,205.007,440.969z"/>
		<path fill="#A0562D" d="M407.722,191.079c8.536,5.651,9.764,14.126,8.514,23.421C407.778,208.785,406.257,200.415,407.722,191.079
			z"/>
		<path fill="#A0562D" d="M160.755,219.045c-2.637,10.094-10.37,13.951-19.512,15.762
			C143.964,224.977,151.384,220.691,160.755,219.045z"/>
		<path fill="#A0562D" d="M140.037,368.102c-6.17-8.334-4.646-16.83-0.22-25C145.805,351.262,144.63,359.796,140.037,368.102z"/>
		<path fill="#A0562D" d="M429.781,323.745c5.846,7.563,8.252,15.8,3.794,24.89C427.8,341.143,425.121,332.936,429.781,323.745z"/>
		<path fill="#A0562D" d="M120.96,349.691c3.875,2.371,7.834,4.578,11.519,7.176c1.106,0.781,1.558,2.604,2.118,4.021
			c1.092,2.762,2.05,5.576,3.145,8.592C128.38,365.855,121.761,360.346,120.96,349.691z"/>
		<path fill="#A0562D" d="M115.003,287.146c7.013,6.608,10.727,14.242,7.432,23.861
			C115.817,304.482,111.753,296.959,115.003,287.146z"/>
		<path fill="#A0562D" d="M129.569,350.904c-3.381-2.812-6.786-5.51-10.007-8.414c-0.807-0.729-1.195-2.078-1.466-3.217
			c-0.792-3.338-1.429-6.715-2.179-10.332C124.771,333.764,130.232,340.313,129.569,350.904z"/>
		<path fill="#A0562D" d="M368.388,445.947c-9.967,6.504-14.523,7.135-25.185,3.566C350.656,442.375,359.223,442.26,368.388,445.947
			z"/>
		<path fill="#A0562D" d="M385.709,434.553c-6.647,7.848-15.306,8.457-24.471,6.148
			C367.836,432.648,376.585,432.326,385.709,434.553z"/>
		<path fill="#A0562D" d="M403.913,198.79c-9.42-6.778-11.322-10.396-11.959-22.537C401.231,180.76,404.061,188.977,403.913,198.79z
			"/>
		<path fill="#A0562D" d="M358.592,427.855c-2.175,9.438-6.627,16.709-16.499,18.834
			C342.493,438.662,348.442,431.732,358.592,427.855z"/>
		<path fill="#A0562D" d="M154.794,377.042c7.715,6.583,8.726,15.044,6.213,24.192C152.96,394.745,152.58,386.104,154.794,377.042z"
			/>
		<path fill="#A0562D" d="M424.415,234.176c-4.661-1.703-8.765-3.097-12.764-4.74c-1.016-0.418-1.876-1.521-2.512-2.5
			c-1.883-2.896-3.617-5.889-5.475-8.947C413.659,218.955,418.733,222.846,424.415,234.176z"/>
		<path fill="#A0562D" d="M388.156,405.055c0.147,10.187-2.642,18.369-12.086,23.002c0.685-4.188,1.304-8.465,2.129-12.703
			c0.193-0.994,0.925-2.018,1.681-2.742C382.497,410.094,385.234,407.703,388.156,405.055z"/>
		<path fill="#A0562D" d="M417.183,384.331c-3.822-8.741-4.106-17.276,2.496-24.952C423.23,368.01,424.078,376.572,417.183,384.331z
			"/>
		<path fill="#A0562D" d="M128.357,369.339c8.938,2.664,16.382,7.138,17.999,17.396C137.067,384.578,130.438,379.24,128.357,369.339
			z"/>
		<path fill="#A0562D" d="M206.802,427.756c10.437,3.787,14.494,8.377,17.094,19.074
			C215.147,444.605,211.205,440.26,206.802,427.756z"/>
		<path fill="#A0562D" d="M450.512,285.588c3.434,9.775-0.575,17.408-7.152,24.038C439.727,299.891,443.98,292.334,450.512,285.588z
			"/>
		<path fill="#A0562D" d="M191.354,417.904c9.81,3.082,13.539,10.961,14.845,20.281C196.365,435.09,192.582,427.234,191.354,417.904
			z"/>
		<path fill="#A0562D" d="M374.789,417.793c-1.262,3.934-2.468,7.955-3.878,11.906c-0.38,1.068-1.204,2.152-2.123,2.818
			c-2.957,2.145-6.054,4.096-9.301,6.258C360.771,428.826,364.556,421.023,374.789,417.793z"/>
		<path fill="#A0562D" d="M322.859,452.363c3.51-8.67,9.041-15.307,19.364-15.971C338.504,444.875,333.346,451.879,322.859,452.363z
			"/>
		<path fill="#A0562D" d="M130.923,252c-3.977-9.193-4.629-17.867,2.535-25.764c0.967,4.361,2.181,8.748,2.803,13.217
			c0.215,1.545-0.932,3.342-1.645,4.939C133.492,246.92,132.208,249.377,130.923,252z"/>
		<path fill="#A0562D" d="M222.449,449.465c-8.888,3.141-17.533,3.443-24.835-3.674C206.43,442.385,215.05,442.252,222.449,449.465z
			"/>
		<path fill="#A0562D" d="M243.05,455.23c-5.02,1.668-9.223,3.102-13.456,4.438c-0.677,0.215-1.554,0.18-2.229-0.057
			c-3.68-1.273-7.326-2.646-11.828-4.295c5.17-1.736,9.5-3.336,13.933-4.572c1.094-0.307,2.545,0.488,3.782,0.918
			C236.283,452.717,239.285,453.854,243.05,455.23z"/>
		<path fill="#A0562D" d="M122.313,291.08c-6.987-11.702-7.237-13.292-3.967-25.415C124.535,273.426,127.048,281.678,122.313,291.08
			z"/>
		<path fill="#A0562D" d="M349.705,455.127c-9.822,5.314-13.811,5.324-27.021-0.088c5.019-1.617,9.316-4.109,13.595-4.076
			C340.603,450.994,344.909,453.527,349.705,455.127z"/>
		<path fill="#A0562D" d="M407.762,402.416c3.014-9.994,10.96-13.249,20.033-14.723
			C425.913,395.452,418.231,401.125,407.762,402.416z"/>
		<path fill="#A0562D" d="M415.891,404.456c-4.016,9.563-12.216,12.453-21.685,12.979
			C397.011,410.01,403.612,406.045,415.891,404.456z"/>
		<path fill="#A0562D" d="M160.824,199.57c-0.13-9.475,2.569-17.746,11.719-22.301C172.701,186.699,170.085,195.014,160.824,199.57z
			"/>
		<path fill="#A0562D" d="M176.417,187.423c8.723-7.42,15.209-8.985,24.64-6.11C194.431,189.053,185.941,189.842,176.417,187.423z"
			/>
		<path fill="#A0562D" d="M391.601,203.352c4.926,1.045,9.297,1.84,13.578,2.971c1.134,0.3,2.097,1.548,2.952,2.521
			c2.125,2.418,4.144,4.928,6.283,7.497C405.117,217.117,398.098,213.199,391.601,203.352z"/>
		<path fill="#A0562D" d="M172.779,204.738c-5.303,9.172-9.627,11.73-21.699,12.99C153.971,210.1,161.393,205.596,172.779,204.738z"
			/>
		<path fill="#A0562D" d="M125.5,271.85c-1.824-4.666-3.492-8.645-4.896-12.713c-0.354-1.029-0.042-2.4,0.274-3.529
			c0.925-3.297,2.004-6.551,3.063-9.951C129.798,253.855,130.248,260.471,125.5,271.85z"/>
		<path fill="#A0562D" d="M440.292,309.982c-8.765-7.535-11.027-12.824-9.937-23.256
			C438.036,292.564,442.364,299.887,440.292,309.982z"/>
		<path fill="#A0562D" d="M137.43,387.294c4.563,1.429,8.995,2.474,13.099,4.269c1.695,0.74,2.752,3.045,3.979,4.728
			c1.361,1.868,2.584,3.837,3.949,5.883C149.837,402.619,141.946,397.046,137.43,387.294z"/>
		<path fill="#A0562D" d="M223.492,436.365c9.723,1.363,14.029,4.947,19.568,16.064
			C234.669,452.109,228.539,447.129,223.492,436.365z"/>
		<path fill="#A0562D" d="M449.463,327.811c0.815,10.117-4.656,16.64-12.881,21.278C435.643,338.876,441.324,332.48,449.463,327.811
			z"/>
		<path fill="#A0562D" d="M135.027,288.175c2.469,10.028-2.316,17.163-9.559,23.037
			C123.428,301.421,127.412,293.941,135.027,288.175z"/>
		<path fill="#A0562D" d="M177.44,405.643c9.483,4.455,11.815,12.936,11.927,22.346C181.619,424.029,177.356,416.1,177.44,405.643z"
			/>
		<path fill="#A0562D" d="M125.083,291.576c0.937-11.205,4.291-16.629,13.508-21.836
			C137.806,281.041,134.75,285.982,125.083,291.576z"/>
		<path fill="#A0562D" d="M440.198,290.46c-3.416-2.849-6.911-5.595-10.175-8.595c-0.866-0.795-1.193-2.322-1.476-3.581
			c-0.707-3.134-1.244-6.304-1.893-9.673C435.552,273.262,440.796,279.893,440.198,290.46z"/>
		<path fill="#A0562D" d="M132.587,349.934c-4.719-8.992-2.203-17.229,3.49-24.914C140.833,334.193,138.188,342.413,132.587,349.934
			z"/>
		<path fill="#A0562D" d="M149.703,404.26c4.26,0.885,8.615,1.719,12.926,2.741c0.875,0.208,1.713,1.011,2.338,1.735
			c2.385,2.77,4.676,5.621,7.242,8.734C162.082,416.962,153.89,414.027,149.703,404.26z"/>
		<path fill="#A0562D" d="M413.507,233.979c9.444,2.592,16.544,7.416,18.331,17.422C422.691,249.73,417.715,245.088,413.507,233.979
			z"/>
		<path fill="#A0562D" d="M189.576,164.785c-0.994,9.484-4.928,17.021-14.582,20.227C176.119,175.799,179.81,168.09,189.576,164.785
			z"/>
		<path fill="#A0562D" d="M426.26,232.166c-7.024-8.719-8.057-13.945-4.947-24.635C428.84,214.432,429.233,222.928,426.26,232.166z"
			/>
		<path fill="#A0562D" d="M389.606,184.018c-9.782-3.068-13.413-10.824-14.804-20.111
			C383.316,166.854,388.657,174.119,389.606,184.018z"/>
		<path fill="#A0562D" d="M438.649,329.548c-6.928-6.815-10.884-14.299-7.529-23.813
			C437.906,310.85,440.487,318.678,438.649,329.548z"/>
		<path fill="#A0562D" d="M426.173,367.829c-1.632-4.841-3.134-9.015-4.395-13.261c-0.278-0.938,0.154-2.182,0.507-3.197
			c1.124-3.241,2.364-6.441,3.602-9.771C431.311,349.6,431.434,356.516,426.173,367.829z"/>
		<path fill="#A0562D" d="M431.705,225.109c7.197,7.697,6.327,16.313,2.934,25.055C429.042,244.24,428.177,237.148,431.705,225.109z
			"/>
		<path fill="#A0562D" d="M146.69,360.486c6.049,9.22,6.56,14.267,2.595,25.146C142.553,377.973,142.664,369.449,146.69,360.486z"/>
		<path fill="#A0562D" d="M439.953,269.868c-5.498-8.573-4.195-17.063,1.041-25.188
			C445.715,252.229,445.423,259.693,439.953,269.868z"/>
		<path fill="#A0562D" d="M134.684,306.686c3.032,9.576-0.22,17.414-7.197,23.943C124.143,321.053,127.964,313.391,134.684,306.686z
			"/>
		<path fill="#A0562D" d="M163.029,201.689c5.34-8.799,13.766-10.406,23.068-9.51C180.719,200.748,172.49,202.831,163.029,201.689z"
			/>
		<path fill="#A0562D" d="M436.915,270.583c-8.515-3.896-14.984-9.579-15.053-19.808
			C430.448,254.52,436.782,260.303,436.915,270.583z"/>
		<circle fill="#A0562D" cx="283.18" cy="301.609" r="125.727"/>
	</g>
</g>
<g id="Layer_6" display="none">
	<rect x="-130.667" y="8.667" display="inline" fill="#FFFFFF" width="489" height="63"/>
</g>
<g id="Layer_5" display="none">
	<rect x="39.333" y="6.667" display="inline" fill="#7EE0E0" width="16" height="65"/>
	<rect x="23.333" y="6.667" display="inline" fill="#967FDD" width="16" height="65"/>
	<rect x="7.333" y="6.667" display="inline" fill="#DD4792" width="16" height="65"/>
</g>
<g id="Layer_7">
	<g>
		<path fill="#3B424F" d="M32.318,25.437c-2.08-0.03-4.083-0.392-6.007-1.118c-0.479-0.181-0.616-0.376-0.326-0.825
			c1.716-2.653,3.403-5.323,5.119-7.978c0.595-0.922,1.876-0.923,2.466-0.01c1.703,2.639,3.391,5.287,5.08,7.936
			c0.364,0.569,0.334,0.634-0.325,0.887C36.403,25.066,34.396,25.413,32.318,25.437z"/>
		<path fill="#3B424F" d="M45.696,39.871c-0.814-5.019-3.016-9.569-5.6-13.993c-0.219-0.376-0.482-0.355-0.847-0.213
			c-4.625,1.808-9.254,1.776-13.874-0.001c-0.464-0.178-0.68-0.076-0.903,0.308c-1.781,3.058-3.353,6.196-4.443,9.523
			c-1.242,3.79-1.784,7.62-0.869,11.552c0.144,0.615,0.447,0.999,1.075,1.282c3.355,1.511,6.927,2.177,10.626,2.385l3.591-0.062
			c3.521-0.176,6.899-0.902,10.146-2.159c0.437-0.168,0.657-0.438,0.763-0.851c0.394-1.521,0.604-3.057,0.549-4.621
			C45.946,41.965,45.865,40.915,45.696,39.871z M32.288,47.297c-5.116-0.018-9.289-3.895-9.263-8.604
			c0.026-4.696,4.236-8.496,9.397-8.478c5.077,0.016,9.246,3.888,9.233,8.573C41.643,43.482,37.422,47.316,32.288,47.297z"/>
		<path fill="#3B424F" d="M32.365,31.971c-4.158-0.005-7.423,2.975-7.423,6.774c-0.002,3.81,3.253,6.797,7.402,6.795
			c4.125-0.001,7.388-2.979,7.396-6.749C39.748,34.973,36.506,31.975,32.365,31.971z M27.604,39.155
			c-0.432-0.083-0.632-0.353-0.634-0.708c0.059-0.425,0.461-0.715,0.863-0.64c0.436,0.082,0.65,0.345,0.616,0.752
			C28.415,38.944,28.011,39.233,27.604,39.155z M30.658,37.292c-1.041-0.022-1.864-0.789-1.87-1.743
			c-0.008-0.984,0.827-1.761,1.9-1.767c1.047-0.005,1.904,0.792,1.897,1.77C32.579,36.523,31.703,37.314,30.658,37.292z"/>
		<path fill="#3B424F" d="M49.297,55.494c-0.386-1.965-1.581-3.582-2.893-5.118c-0.801-0.94-0.833-0.916-1.997-0.459
			c-3.207,1.257-6.57,1.894-10.037,2.121l-3.711,0.022c-3.64-0.209-7.147-0.906-10.442-2.383c-0.829-0.371-0.918-0.361-1.547,0.271
			c-1.322,1.33-2.258,2.88-3.019,4.521c-0.263,0.566-0.328,1.18-0.371,1.902c0.201,2.775,1.546,5.26,3.199,7.639
			c0.01,0.014,0.025,0.028,0.038,0.041c0.099,0.098,0.202,0.191,0.364,0.145c0.156-0.045,0.218-0.168,0.226-0.301
			c0.022-0.369,0.032-0.738,0.039-1.106c0.042-2.026,0.92-3.679,2.586-5.004c0.472-0.375,0.893-0.445,1.47-0.183
			c1.703,0.776,5.32,1.816,9.549,1.816s7.074-1.076,9.068-1.941c0.313-0.135,0.576-0.082,0.841,0.106
			c1.461,1.038,2.422,2.358,2.75,4.044c0.128,0.66,0.133,1.325,0.146,1.991c0.004,0.214-0.044,0.489,0.25,0.569
			c0.3,0.082,0.414-0.183,0.537-0.36c0.777-1.128,1.479-2.294,2.013-3.537C49.017,58.752,49.628,57.182,49.297,55.494z
			 M19.083,53.164c-1.71,1.957-1.118,4.516-0.987,6.182c0.131,1.666,0.098,2.662-0.266,2.248c-0.365-0.414-1.117-3.613-1.248-5.57
			c-0.131-1.955,1.71-4.778,2.5-5.352C19.871,50.1,19.937,52.186,19.083,53.164z M46.702,61.594
			c-0.413,0.414-0.451-0.582-0.302-2.248s0.821-4.225-1.12-6.182c-0.969-0.979-0.894-3.064,0.001-2.492
			c0.896,0.573,2.985,3.396,2.836,5.352C47.968,57.98,47.115,61.18,46.702,61.594z"/>
	</g>
	<path fill="#3B424F" d="M33.333,70.667c0,0.552-0.448,1-1,1l0,0c-0.552,0-1-0.448-1-1v-9c0-0.552,0.448-1,1-1l0,0
		c0.552,0,1,0.448,1,1V70.667z"/>
	<path fill="#3B424F" d="M37.333,66.854c0,0.449-0.364,0.813-0.813,0.813h-0.375c-0.449,0-0.813-0.364-0.813-0.813v-5.375
		c0-0.449,0.364-0.813,0.813-0.813h0.375c0.449,0,0.813,0.363,0.813,0.813V66.854z"/>
	<path fill="#3B424F" d="M29.333,66.854c0,0.449-0.364,0.813-0.813,0.813h-0.375c-0.449,0-0.813-0.364-0.813-0.813v-5.375
		c0-0.449,0.364-0.813,0.813-0.813h0.375c0.449,0,0.813,0.363,0.813,0.813V66.854z"/>
	<path fill="#FCFCFC" d="M13.125,55.588"/>
</g>
<g id="Layer_2">
	<path fill="#3B424F" d="M56.259,40.12c1.092-0.414,2.189-0.815,3.273-1.25c0.791-0.318,1.509-0.202,1.749,0.458
		c0.239,0.657-0.213,1.287-1.038,1.479c-1.726,0.404-2.184,1.097-1.758,2.763c0.863,3.39,1.33,6.892,1.962,10.347
		c0.146,0.795,0.687,0.418,1.221,0.308c0.828-0.172,1.926-1.377,2.44,0.039c0.466,1.285-0.866,1.516-1.809,1.92
		c-1.817,0.782-3.766,1.232-5.462,2.342c-0.556,0.363-1.514,1.068-2.107,0.064c-0.528-0.895,0.279-1.854,0.921-1.992
		c2.986-0.648,1.732-2.43,1.485-3.703c-0.617-3.164-1.272-6.319-1.79-9.508c-0.14-0.861-0.74-0.338-1.227-0.25
		c-0.833,0.151-1.978,1.361-2.403-0.099c-0.344-1.178,0.917-1.538,1.889-1.909C54.49,40.791,55.375,40.457,56.259,40.12z"/>
	<path fill="#3B424F" d="M121.313,21.644c-0.951,0.543-1.862-0.049-2.08-0.785c-0.248-0.834,0.017-1.869,1.136-2.363
		c1.051-0.463,1.738,0.054,2.207,0.772C123.102,20.077,122.455,21.187,121.313,21.644z"/>
	<path fill="#3B424F" d="M129.955,20.568c-1.449-0.324-2.594,0.099-3.5,1.153c-1.615,1.879-1.463,3.958-0.522,6.083
		c-0.002,0.098,0.008,0.196,0.028,0.292c-0.061,0.073-0.138,0.138-0.179,0.221c-0.259,0.538-0.462,1.386-1.075,1.301
		c-0.683-0.093-0.881-0.797-1.058-1.599c-0.296-1.352-0.302-2.768-0.817-4.072c-0.201-0.511-0.352-1.05-1.097-0.877
		c-0.751,0.175-1.319,0.628-1.2,1.401c0.248,1.585,0.352,3.202,0.867,4.739c-0.006,0.09,0.003,0.178,0.03,0.264
		c-0.07,0.267-0.06,0.614-0.226,0.785c-0.429,0.433-0.572,1.24-1.404,1.18c-0.911-0.065-1.105-0.81-1.323-1.482
		c-0.214-0.66,0.038-1.323,0.099-1.984c0.338-3.62,0.797-7.241-0.813-10.725c-0.432-0.936-0.924-1.838-2.055-1.657
		c-1.172,0.187-2.142,0.701-2.241,2.226c-0.134,2.066,0.127,4.067,0.462,6.085c0.115,0.707,0.749,1.528-0.092,2.163
		c-2.48,1.871-2.979,4.343-2.287,7.207c-0.008,0.09,0.002,0.177,0.029,0.263c-0.078,0.123-0.164,0.239-0.229,0.369
		c-0.253,0.499-0.424,1.225-1.053,1.201c-0.633-0.024-0.613-0.805-0.793-1.281c-0.459-1.219-0.246-2.602-0.84-3.785
		c-0.25-0.499-0.078-1.291-1-1.398c-0.918-0.107-1.485,0.363-1.961,0.982c-0.988,1.286-1.189,2.849-1.375,4.556
		c-0.563-0.874-0.336-1.72-0.513-2.486c-0.127-0.559-0.008-1.497-0.819-1.436c-0.869,0.064-1.531,0.576-1.522,1.734
		c0.012,1.562,0.657,2.969,0.845,4.474c-0.006,0.09,0.004,0.178,0.029,0.265c-0.367,0.117-0.443,0.479-0.65,0.735
		c-0.873,1.077-1.832,2.062-3.365,2.08c-0.299,0.003-0.623-0.065-0.705-0.399c-0.082-0.335,0.268-0.333,0.461-0.442
		c0.775-0.433,1.275-1.163,1.796-1.826c0.759-0.965,0.526-3.14-0.291-3.979c-0.679-0.695-2.429-0.785-3.435-0.088
		c-1.559,1.081-2.595,3.136-1.92,5.124c-0.054,0.119-0.107,0.237-0.16,0.355c-1.09,0.288-1.063-0.399-1.195-1.184
		c-0.143-0.842-0.153-1.966-1.137-2.292c-1.199-0.398-1.761,0.543-2.375,1.425c-0.83,1.192-0.795,2.579-1.111,3.99
		c-0.54-0.824-0.307-1.673-0.483-2.442c-0.128-0.556-0.004-1.497-0.825-1.431c-0.869,0.07-1.526,0.578-1.518,1.737
		c0.014,1.561,0.658,2.965,0.845,4.471c-0.007,0.09,0.003,0.179,0.029,0.264c-0.224,0.432-0.39,0.904-0.681,1.281
		c-0.326,0.424-0.688,1.041-1.281,0.916c-0.827-0.174,0.061-0.746-0.124-1.178c-0.187-0.441-0.032-1.016-0.076-1.527
		c-0.164-1.923-1.329-3.356-2.868-3.56c-1.294-0.171-2.289,0.612-2.861,2.292c-0.308-0.73-0.594-1.417-1.592-0.919
		c-0.862,0.43-1.222,1.057-0.895,1.964c0.432,1.198,0.926,2.373,1.395,3.556c-0.101,0.345-0.203,0.689-0.304,1.035
		c-0.122,0.207-0.25,0.414-0.363,0.625c-0.234,0.437-0.367,0.998-1.034,0.93c-0.759-0.078-0.53-0.717-0.7-1.178
		c-0.456-1.241-0.357-2.58-0.78-3.816c-0.225-0.658-0.418-1.382-1.239-1.472c-0.803-0.088-1.306,0.459-1.807,1.027
		c-1.104,1.25-1.054,2.858-1.435,4.36c-0.04-0.849-0.359-1.604-0.572-2.386c-0.376-1.385-1.179-1.617-2.247-0.659
		c-1.438,1.291-1.749,3-1.794,4.92c-0.587-0.845-0.351-1.729-0.508-2.536c-0.098-0.499-0.061-1.378-0.795-1.326
		c-0.834,0.061-1.58,0.555-1.545,1.59c0.017,0.521,0.14,1.039,0.217,1.557c0.28,1.908,0.622,3.806,1.807,5.396
		c0.318,0.428,0.648,1.018,1.393,0.813c0.688-0.19,0.873-0.712,0.919-1.337c0.025-0.332-0.005-0.655-0.039-0.99
		c-0.15-1.512-0.159-3.034,0.183-4.532c0.048-0.209,0.044-0.53,0.37-0.491c0.164,0.02,0.454,0.234,0.438,0.31
		c-0.227,1.092,0.762,1.897,0.667,2.948c-0.085,0.947,0.734,1.414,1.176,2.054c0.264,0.384,0.893,0.452,1.343,0.099
		c0.647-0.512,0.644-1.248,0.566-1.982c-0.198-1.842-0.325-3.672,0.738-5.496c0.204,0.615,0.382,1.019,0.429,1.531
		c0.345,3.76,1.285,4.543,4.341,3.772c0.159,2.196,0.103,4.417,0.996,6.515c0.485,1.139,1.224,1.971,2.469,1.816
		c1.314-0.161,1.957-1.146,1.998-2.471c0.072-2.266-0.229-4.48-0.885-6.65c-0.099-0.32-0.586-0.781-0.047-1.008
		c0.941-0.396,1.452-1.563,2.848-1.25c0.916,0.204,1.875-0.549,2.449-1.322c0.504-0.68,0.709-1.281,1.646-0.451
		c0.496,0.438,1.107,0.08,1.38-0.58c0.229-0.553,0.146-1.102,0.108-1.688c-0.104-1.665-0.207-3.365,0.717-5.061
		c1.604,2.938,2.465,3.25,4.324,1.736l0.111-0.065l0.123-0.035c1.832,2.958,5.691,2.415,8.336-1.142
		c0.59,0.217,0.771,1.186,1.694,0.8c0.747-0.312,0.749-0.946,0.81-1.568c0.021-0.23-0.074-0.47-0.086-0.707
		c-0.084-1.767-0.151-3.531,0.869-5.547c0.137,1,0.484,1.462,0.473,2.108c-0.016,0.748,0.234,1.511,0.431,2.25
		c0.253,0.964,1.065,1.479,1.911,1.595c1.059,0.145,2.02-0.509,2.584-1.326c0.583-0.842,0.939-1.175,2.042-0.739
		c1.103,0.435,2.173-0.097,2.784-1.221c0.264-0.486,0.488-0.995,0.736-1.504c1.955,1.417,3.15,1.226,4.598-0.672
		c0.219-0.287,0.246-0.87,0.805-0.547c1.9,1.104,3.014-0.017,3.902-1.45c0.406-0.655,0.686-0.577,1.307-0.384
		c2.314,0.712,4.268-0.651,4.982-3.018c0.375-1.24,0.055-2.334-0.25-3.359C132.512,22.081,131.591,20.933,129.955,20.568z
		 M115.369,18.566c-0.013-0.405-0.168-0.893,0.24-1.025c0.574-0.188,0.489,0.469,0.635,0.768c1.209,2.505,1.188,5.173,0.896,7.909
		C116.322,23.733,115.446,21.246,115.369,18.566z M80.376,55.641c0.06,0.248,0.229,0.881-0.33,0.953
		c-0.416,0.053-0.633-0.33-0.791-0.729c-0.859-2.17-0.877-4.426-0.806-6.883C79.662,51.173,79.851,53.458,80.376,55.641z
		 M81.721,42.787c0.106,1.438,0.218,2.792-1.192,3.917c-0.458-1.201-0.931-2.265-1.262-3.369c-0.307-1.026,0.322-2.014,1.111-2.198
		C81.089,40.969,81.647,41.802,81.721,42.787z M96.41,35.506c0.229-0.667,0.65-1.179,1.396-0.887
		c0.652,0.256,0.656,0.837,0.422,1.474c-0.301,0.822-0.982,1.271-1.771,1.931C96.544,37.072,96.13,36.308,96.41,35.506z
		 M115.446,33.253c-0.464,0.376-1.071-0.003-1.344-0.626c-0.765-1.75-0.502-3.321,0.963-4.769c0.015,1.185,0.677,2.06,1.2,3.009
		C116.833,31.897,116.13,32.697,115.446,33.253z M131,25.672c0.11,0.797-0.151,1.662-0.983,2.019
		c-0.72,0.308-1.487-0.41-2.019-1.806c-0.207-0.452-0.402-1.028-0.313-1.69c0.078-0.58,0.154-1.227,0.74-1.406
		c0.68-0.209,1.387,0.112,1.742,0.705C130.563,24.155,130.896,24.917,131,25.672z"/>
	<path fill="#3B424F" d="M62.154,64.1c0,0,12.178,0.369,22.049-3.342c9.87-3.71,14.473-14.514,25.67-20.434
		c18.605-9.839,35.597-4.965,35.597-4.965s-24.65,1.567-42.952,25.267c-9.088,11.767-17.27,21.627-29.064,23.144
		c-7.256,0.935-11.846-0.865-11.846-0.865l6.792-8.594L62.154,64.1z"/>
</g>
</svg>
