<?xml version="1.0" encoding="utf-8"?>
<!-- Generator: Adobe Illustrator 16.0.3, SVG Export Plug-In . SVG Version: 6.00 Build 0)  -->
<!DOCTYPE svg PUBLIC "-//W3C//DTD SVG 1.1//EN" "http://www.w3.org/Graphics/SVG/1.1/DTD/svg11.dtd">
<svg version="1.1" id="Layer_1" xmlns="http://www.w3.org/2000/svg" xmlns:xlink="http://www.w3.org/1999/xlink" x="0px" y="0px"
	 width="612px" height="605px" viewBox="0 0 612 605" enable-background="new 0 0 612 605" xml:space="preserve">
<g id="Layer_3" display="none">
	<path display="inline" fill="#FAF17D" stroke="#FAF17D" stroke-width="8" stroke-miterlimit="10" d="M113.969,322.69
		c0.141,19.644,13.986,91.381,29.054,107.264c15.069,15.883,73.663,63.526,73.663,63.526s32.934,4.766,32.934,19.061
		c0,14.293,29.301,63.525,42.107,65.114c12.808,1.589,101.281-65.114,104.332-69.881c3.052-4.764,180.404-163.584,69.61-298.582
		c-69.322-84.462-189.146-106.508-278.594-62.501C116.633,181.347,113.586,269.544,113.969,322.69z"/>
	
		<image display="inline" overflow="visible" enable-background="new    " width="225" height="225" xlink:href="73288B16.jpeg"  transform="matrix(1 0 0 1 452.0002 209.9998)">
	</image>
</g>
<g id="Layer_5">
	<g>
		<path d="M259.704,605c-32.365-12.009-41.319-25.146-41.37-60.726c-0.017-10.645-0.924-21.385,0.156-31.919
			c4.646-45.317-14.704-82.109-41.839-115.391c-56.766-69.625-57.231-160.944,3.052-227.929
			c48.259-53.625,110.234-70.112,178.851-49.256c68.293,20.759,108.351,69.248,119.546,140.038
			c8.241,52.126-8.02,97.333-40.763,137.942c-19.231,23.852-36.291,49.874-39.749,81.142c-2.269,20.51-0.733,41.554,0.354,62.293
			c1.617,30.878-9.48,53.125-39.734,63.805C325.369,605,292.538,605,259.704,605z"/>
		<path d="M312.948,6c2.792,5.482,7.159,10.729,8.014,16.497c1.336,9.058,1.688,18.773-0.284,27.598
			c-1.07,4.792-7.235,10.67-12.122,11.862c-7.417,1.811-12.102-3.523-12.029-11.787c0.088-10.139-0.847-20.392,0.416-30.374
			c0.615-4.858,5.221-9.214,8.021-13.797C307.622,6,310.284,6,312.948,6z"/>
		<path d="M207.092,80.962c-4.716,5.438-7.282,11.109-10.725,11.706c-4.841,0.837-12.541-0.394-15.122-3.743
			c-7.19-9.327-13.149-19.862-17.897-30.667c-1.52-3.456,0.957-10.618,4.027-13.545c2.613-2.49,11.264-3.396,12.842-1.445
			C189.684,54.978,197.878,67.717,207.092,80.962z"/>
		<path d="M429.004,93.912c-12.489-0.084-18.375-8.899-13.628-18.509c4.855-9.826,10.337-19.649,17.338-27.96
			c2.928-3.473,11.274-5.248,15.697-3.676c3.502,1.244,7.859,10.112,6.486,13.262c-5.06,11.592-12.068,22.392-18.997,33.066
			C434.303,92.555,430.116,93.334,429.004,93.912z"/>
		<path d="M65.01,154.129c0.404-12.603,9.358-18.153,18.898-13.349c9.413,4.743,18.421,10.385,27.247,16.179
			c6.896,4.525,9.528,12.161,3.814,17.975c-3.514,3.574-12.266,5.438-17,3.651c-9.735-3.671-18.632-9.906-27.281-15.936
			C67.55,160.462,66.101,155.852,65.01,154.129z"/>
		<path d="M552.839,153.516c-0.483,1.167-0.837,5.168-2.901,6.487c-11.429,7.295-22.956,14.615-35.212,20.283
			c-2.756,1.273-10.472-2.982-12.38-6.569c-1.862-3.5-0.988-11.708,1.771-13.83c10.041-7.714,20.957-14.611,32.368-20.108
			C544.379,135.976,552.595,142.853,552.839,153.516z"/>
		<path d="M58.591,272.26c4.434,0.006,9.67-1.494,13.119,0.35c5.53,2.955,9.875,8.125,14.722,12.359
			c-4.287,4.356-8.045,11.559-12.975,12.479c-10.264,1.916-21.407,1.85-31.658-0.137c-4.699-0.91-10.867-7.903-11.546-12.807
			c-1.103-7.957,5.164-12.463,13.708-12.272C48.835,272.339,53.714,272.251,58.591,272.26z"/>
		<path d="M559.887,272.394c5.767,0,12.282-1.674,17.084,0.477c4.669,2.093,10.478,8.124,10.451,12.394
			c-0.026,4.237-6.229,11.381-10.551,12.071c-10.789,1.726-22.299,1.856-33.008-0.135c-4.768-0.886-8.304-8.418-12.4-12.933
			c4.597-4.004,8.654-9.145,13.959-11.639c3.996-1.879,9.586-0.372,14.465-0.372C559.887,272.304,559.887,272.348,559.887,272.394z"
			/>
	</g>
</g>
<g id="Layer_1_1_" display="none">
	<g display="inline">
		<g>
			<path d="M291.185,536.712c-5.116-20.671-15.261-37.958-32.117-51.117c-17.221-13.445-37.534-22.279-53.973-36.798
				c-18.716-16.532-33.127-37.756-43.966-60.119c-10.56-21.788-17.729-45.924-18.475-70.221c-0.688-22.46,1.251-45.416,8.143-66.889
				c6.435-20.05,18.125-37.673,33.422-52.053c33.662-31.645,80.833-47.568,126.697-44.726
				c44.697,2.771,86.709,24.289,116.143,57.813c32.891,37.462,45.174,87.117,41.937,136.155
				c-1.629,24.679-7.625,49.435-18.991,71.473c-5.776,11.199-13.117,20.733-23.204,28.373c-9.376,7.101-20.022,12.363-30.229,18.13
				c-10.179,5.751-19.938,12.229-28.053,20.717c-8.138,8.516-13.023,18.771-18.119,29.253c-3.736,7.688-7.546,16.609-15.931,19.98
				c-7.782,3.129-16.331,4.796-24.614,5.893c-7.767,1.027-16.5,1.844-24.076-0.633c-2.03-0.663-4.943-2.354-2.823-4.121
				c3.313-2.76,7.379-4.521,11.521-5.575c14.314-3.641,31.464,3.68,40.079,15.351c3.516,4.764,5.655,11.053,3.193,16.77
				c-3.455,8.024-13.239,11.631-20.96,13.841c-3.727,1.067-8.563,0.386-12.349,0.051c-5.072-0.45-10.438-1.543-14.827-4.223
				c-2.806-1.713-4.815-6.005-3.9-9.228c0.846-2.98,5.479-3.995,8.002-4.582c7.562-1.759,15.829-1.161,23.496-0.503
				c8.411,0.722,16.73,2.101,24.309,6.029c3.5,1.813,7.021,4.459,8.435,8.272c1.986,5.358-2.344,10.795-5.711,14.445
				c-4.385,4.755-12.691,5.37-18.725,5.821c-7.317,0.548-14.881,0.209-22.027-1.516c-2.939-0.709-10.321-2.583-6.835-6.653
				c5.881-6.866,16.042-8.663,24.486-7.038c7.228,1.393,18.467,7.215,14.55,16.265c-6.129,14.161-28.453,12.715-40.793,10.938
				c-5.136-0.739-13.218-2-16.019-7.051c-3.15-5.68,6.456-10.807,10.426-11.791c14.995-3.717,37.042,4.224,46.17,16.651
				c11.962,16.286-14.024,25.188-26.102,25.329c-6.874,0.078-16.289-2.003-18.381-9.638c-1.769-6.449,5.159-8.976,10.182-9.807
				c13.715-2.271,34.632,4.546,37.335,19.948c0.557,3.171,5.375,1.822,4.821-1.33c-2.602-14.822-18.584-21.8-31.954-23.573
				c-9.616-1.276-27.658,1.028-25.462,14.739c2.553,15.938,24.097,16.032,35.965,12.976c13.131-3.384,26.792-14.514,19.224-29.077
				c-7.211-13.878-26.895-20.493-41.362-21.771c-6.756-0.598-14.618,0.203-20.107,4.561c-4.046,3.211-7.479,8.996-5.54,14.241
				c1.917,5.184,7.873,7.557,12.744,8.992c7.147,2.104,14.905,2.52,22.313,2.357c13.001-0.282,30.77-3.723,32.362-19.783
				c0.74-7.482-6.321-13.13-12.363-15.844c-7.778-3.494-17.154-4.016-25.148-0.977c-4.783,1.819-12.395,6.045-13.366,11.729
				c-0.827,4.842,3.688,7.582,7.521,9.164c12.03,4.963,28.925,4.373,41.169,0.585c7.426-2.298,12.863-8.461,15.396-15.736
				c2.609-7.505-2.143-14.08-8.038-18.173c-12.497-8.677-31.516-9.51-46.239-8.668c-6.036,0.345-14.077,1.225-18.075,6.394
				c-3.954,5.114-1.137,12.961,3.456,16.69c6.662,5.41,17.191,6.118,25.402,6.146c8.509,0.026,17.223-3.294,23.956-8.46
				c11.029-8.465,10.333-21.512,2.349-31.803c-8.727-11.245-24.281-17.69-38.338-16.812c-7.661,0.479-14.688,3.55-20.549,8.432
				c-2.251,1.875-1.986,5.532-0.328,7.765c1.672,2.25,4.221,3.444,6.822,4.294c7.393,2.415,16.05,1.586,23.619,0.721
				c8.383-0.957,16.769-2.657,24.765-5.368c7.102-2.407,11.316-6.008,15.417-12.373c6.349-9.858,10.081-21.157,16.521-30.986
				c13.479-20.571,38.294-29.235,58.094-42.041c9.583-6.198,18.292-13.888,24.561-23.496c6.228-9.546,11.019-19.991,14.914-30.681
				c16.399-45,15.599-98.379-1.485-143.037c-15.874-41.495-49.203-75.813-89.341-94.408c-39.27-18.193-84.599-20.602-125.766-7.545
				c-40.905,12.973-79.273,41.454-96.402,81.63c-8.29,19.446-11.426,40.601-12.256,61.599c-0.938,23.732,2.222,46.433,10.123,68.866
				c12.838,36.45,36.004,71.872,68.271,93.865c14.478,9.868,30.395,17.6,43.802,29.012c13.971,11.894,22.025,27.664,26.388,45.293
				C287.138,541.17,291.959,539.843,291.185,536.712L291.185,536.712z"/>
		</g>
	</g>
</g>
<g id="Layer_2" display="none">
	<g display="inline">
		<g>
			<path d="M297.451,536.114c-15.735-23.709-31.997-47.019-52.719-66.699c-18.265-17.348-40.958-29.179-60.603-44.786
				c-20.658-16.414-34.882-37.823-40.03-63.857c-5.086-25.722-1.584-52.575,1.706-78.289c2.708-21.171,3.233-42.976,13.77-62.071
				c8.612-15.61,22.417-27.512,37.729-36.28c32.832-18.799,72.837-24.322,110.126-24.555c19.082-0.119,38.525,1.111,57.084,5.738
				c22.024,5.49,42.656,16.15,60.081,30.661c17.179,14.305,30.782,32.508,40.111,52.783c10.216,22.198,13.145,45.777,13.89,69.953
				c1.464,47.56-5.826,97.619-41.245,132.408c-9.252,9.089-20.28,17.554-31.896,23.35c-11.57,5.772-24.625,9.394-36.779,13.761
				c-9.416,3.383-16.742,9.213-22.199,17.541c-6.057,9.245-10.184,19.602-19.26,26.451c-10.094,7.618-23.151,12.689-35.772,13.537
				c-7.233,0.484-23.564-2.98-20.064-13.517c3.213-9.674,19.484-12.438,27.966-13.329c10.741-1.128,18.353,3.728,23.016,13.256
				c4.354,8.896,7.644,23.437,3.489,32.912c-3.878,8.846-13.439,10.313-21.917,10.285c-7.603-0.022-19.317-0.065-25.6-5.104
				c-6.528-5.237-0.938-11.902,4.232-14.737c12.752-6.992,30.357-8.38,44.637-7.206c9.028,0.742,17.068,4.08,19.607,13.437
				c2.375,8.752,1.441,22.396-7.443,27.146c-7.303,3.901-17.265,3.075-25.254,4.385c-8.979,1.474-17.628,4.366-26.729,5.232
				c-7.292,0.693-18.263-0.955-15.415-11.118c1.862-6.644,12.774-8.496,18.369-9.524c14.181-2.607,32.798-3.94,44,6.729
				c10.601,10.1,7.847,26.345-4.701,33.165c-7.558,4.108-16.756,3.926-25.094,3.387c-6.449-0.417-18.007-1.815-18.736-10.089
				c-0.936-10.611,8.891-14.546,17.604-14.406c9.025,0.146,18.397,3.25,26.316,7.443c12.445,6.592,16.101,22.558,12.688,35.311
				c-0.835,3.119,3.988,4.441,4.821,1.33c3.189-11.928,1.087-23.626-6.323-33.542c-4.997-6.688-12.836-9.864-20.564-12.413
				c-14.598-4.814-36.713-6.051-39.399,13.706c-2.317,17.044,21.082,17.933,32.536,17.889c14.333-0.057,29.96-7.314,32.287-22.836
				c2.088-13.93-7.883-25.514-20.383-30.009c-7.097-2.553-14.825-2.354-22.25-2.016c-7.526,0.344-15.185,1.247-22.38,3.553
				c-5.901,1.892-12.024,5.322-13.803,11.668c-1.817,6.484,2.073,13.271,8.001,15.729c7.706,3.194,18.027,0.534,25.786-1.109
				c8.659-1.834,16.989-3.649,25.811-4.601c7.354-0.792,15.284-1.781,20.526-7.563c6.124-6.752,6.219-18.14,4.997-26.58
				c-2.596-17.938-21.891-20.302-36.744-19.527c-13.239,0.689-30.715,2.659-40.878,12.061c-4.66,4.312-4.79,10.351-1.903,15.68
				c3.55,6.554,12.74,7.756,19.368,8.662c15.554,2.132,36.047,1.593,40.068-17.443c2.043-9.669-0.793-21.698-4.519-30.606
				c-3.351-8.006-9.001-14.514-17.563-16.855c-9.38-2.567-21.104,0.396-29.805,3.993c-6.864,2.839-13.565,8.131-14.271,15.996
				c-0.713,7.954,7.601,12.688,13.979,14.752c11.035,3.573,23.425,0.262,33.8-3.922c10.485-4.227,19.882-10.327,26.497-19.566
				c5.744-8.022,9.33-17.609,16.381-24.656c4.16-4.157,9.613-6.732,15.075-8.694c6.511-2.34,12.951-4.815,19.513-7.03
				c5.279-1.782,10.489-3.718,15.561-6.033c6.43-2.939,11.89-7.03,17.642-11.053c19.057-13.318,34.113-31.407,43.847-52.499
				c9.562-20.718,13.596-43.502,15.061-66.136c1.534-23.7,1.236-48.636-3.677-71.94c-4.58-21.723-14.17-42.32-27.452-60.069
				c-26.451-35.347-66.879-56.662-110.438-61.442c-36.258-3.979-74.158-1.732-109.319,8.193
				c-33.589,9.481-66.948,28.523-81.203,61.937c-3.563,8.354-5.631,17.146-6.688,26.146c-1.479,12.576-3.035,25.139-4.586,37.708
				c-3.12,25.295-5.24,51.175,0.393,76.281c5.492,24.477,20.04,44.934,39.22,60.679c19.453,15.969,42.021,27.776,60.699,44.736
				c21.132,19.189,37.309,43.035,52.997,66.672C294.908,541.311,299.24,538.81,297.451,536.114L297.451,536.114z"/>
		</g>
	</g>
	<g display="inline">
		<g>
			<path d="M297.451,536.114c-6.792-11.696-10.882-24.639-16.575-36.857c-5.438-11.672-13.396-21.646-23.409-29.714
				c-9.96-8.026-20.9-14.855-31.077-22.618c-9.334-7.12-18.425-14.584-26.798-22.823c-33.425-32.89-44.201-81.47-42.064-127.115
				c1.047-22.343,6.355-44.718,17.5-64.231c11.554-20.228,29.265-33.986,49.946-44.029c42.903-20.832,96.377-28.483,141.601-10.77
				c46.771,18.321,73.245,66.689,83.586,113.461c5.261,23.79,6.5,48.465,4.297,72.705c-1.969,21.656-6.064,43.897-19.892,61.361
				c-16.693,21.087-42.819,30.402-64.147,45.624c-23.456,16.739-41.774,39.599-47.554,68.306c-0.633,3.148,4.187,4.489,4.822,1.33
				c4.997-24.831,19.521-44.854,38.981-60.57c17.922-14.473,39.598-23.052,57.566-37.425c15.297-12.234,25.261-28.514,30.25-47.368
				c5.938-22.432,6.939-46.887,5.466-69.938c-2.988-46.741-19.517-94.782-53.782-127.838
				c-34.948-33.716-86.224-39.378-132.07-30.443c-22.664,4.417-44.704,12.672-64.725,24.163
				c-18.806,10.793-33.446,27.48-42.873,46.889c-19.313,39.765-17.431,88.932-5.514,130.561
				c4.555,15.908,11.863,30.878,21.923,44.025c10.128,13.237,22.769,24.222,35.82,34.474c7.449,5.851,14.96,11.541,22.78,16.889
				c8.523,5.83,16.965,11.77,23.67,19.716c13.507,16.012,17.597,36.933,27.952,54.764
				C294.752,541.425,299.073,538.908,297.451,536.114L297.451,536.114z"/>
		</g>
	</g>
	<g display="inline">
		<g>
			<path d="M294.414,540.61c1.218-38.242-10.011-74.786-24.001-109.944c-11.767-29.566-16.038-63.358-35.667-89.307
				c-0.753-0.995-2.229-1.771-3.42-0.897c-8.157,5.969-14.874,15.124-6.342,23.886c7.315,7.51,20.053,10.499,30.055,11.781
				c13.72,1.76,27.462-2.557,37.244-12.487c11.301-11.475,10.723-27.65,1.79-40.281c-0.648-0.918-1.676-1.479-2.822-1.149
				c-7.901,2.263-16.314,6.277-18.632,14.857c-1.861,6.889,2.004,13.868,6.25,18.98c10.826,13.037,27.183,14.756,43.013,14.803
				c15.919,0.047,37.218-1.929,47.15-16.218c7.752-11.15,0.246-22.328-10.955-26.356c-8.473-3.047-18.894-2.591-26.763,1.895
				c-9.255,5.275-10.661,15.996-7.616,25.403c8.396,25.932,46.377,18.659,57.194-1.194c-1.439-0.841-2.879-1.682-4.318-2.522
				c-13.423,28.768-36.112,51.905-49.433,80.734c-14.224,30.783-15.995,65.669-16.023,99.019c-0.003,3.225,4.997,3.225,5,0
				c0.028-33.188,1.902-67.411,16.048-98.022c13.071-28.294,35.539-50.946,48.728-79.207c1.341-2.875-2.754-5.394-4.318-2.522
				c-7.65,14.044-30.863,21.671-43.474,9.747c-5.41-5.115-7.945-15.063-4.451-21.864c2.757-5.366,9.205-7.634,14.839-8.206
				c10.034-1.019,27.299,3.912,22.979,17.19c-2.732,8.396-12.619,12.317-20.333,14.401c-9.263,2.502-19.075,2.915-28.619,2.659
				c-12.464-0.333-23.792-2.097-33.108-11.118c-3.936-3.81-7.274-8.942-7.198-14.586c0.104-7.736,9.257-11.3,15.372-13.051
				c-0.941-0.383-1.882-0.766-2.823-1.149c8.21,11.609,8.286,24.786-1.918,35.146c-8.002,8.124-19.912,11.416-31.034,10.313
				c-8.497-0.842-17.444-3.375-24.762-7.817c-2.77-1.682-5.957-4.288-6.269-7.755c-0.419-4.675,4.815-8.604,8.077-10.989
				c-1.14-0.299-2.279-0.598-3.42-0.897c18.879,24.957,23.809,57.658,34.477,86.399c6.575,17.717,13.4,35.132,18.051,53.497
				c4.706,18.583,7.068,37.659,6.458,56.832C289.311,543.837,294.311,543.826,294.414,540.61L294.414,540.61z"/>
		</g>
	</g>
	<g display="inline">
		<g>
			<path d="M289.002,130.689c-6.656-37.583-15.379-74.883-29.999-110.245c-1.214-2.937-6.053-1.651-4.821,1.329
				c14.62,35.362,23.342,72.661,29.999,110.245C284.743,135.19,289.561,133.842,289.002,130.689L289.002,130.689z"/>
		</g>
	</g>
	<g display="inline">
		<g>
			<path d="M398.243,154.365c16.6-34.522,40.368-65.293,62.998-95.995c1.916-2.6-2.427-5.089-4.317-2.522
				c-22.629,30.701-46.398,61.471-62.996,95.995C392.536,154.732,396.848,157.27,398.243,154.365L398.243,154.365z"/>
		</g>
	</g>
	<g display="inline">
		<g>
			<path d="M486.746,232.01c37.22-12.531,71.844-31.363,107.994-46.498c2.929-1.227,1.645-6.066-1.33-4.821
				c-36.145,15.132-70.783,33.97-107.994,46.498C482.379,228.211,483.682,233.042,486.746,232.01L486.746,232.01z"/>
		</g>
	</g>
	<g display="inline">
		<g>
			<path d="M500.245,353.504c15.224-2.222,31.293-0.797,46.582-0.13c15.733,0.688,31.495,1.986,47.248,2.031
				c3.226,0.009,3.225-4.991,0-5c-15.752-0.045-31.517-1.329-47.248-2.031c-15.788-0.704-32.198-1.983-47.911,0.31
				C495.735,349.147,497.093,353.964,500.245,353.504L500.245,353.504z"/>
		</g>
	</g>
	<g display="inline">
		<g>
			<path d="M147.745,203.94c-16.006-3.954-30.479-13.892-43.829-23.186c-13.958-9.716-27.188-20.41-40.545-30.92
				c-2.504-1.97-6.068,1.543-3.535,3.535c13.697,10.776,27.285,21.686,41.557,31.702c13.65,9.581,28.619,19.636,45.023,23.688
				C149.546,209.535,150.874,204.713,147.745,203.94L147.745,203.94z"/>
		</g>
	</g>
	<g display="inline">
		<g>
			<path d="M120.1,314.095c-17.373-1.159-35.1,0.446-52.413,1.815c-17.235,1.364-34.795,2.737-51.747,6.3
				c-3.154,0.663-1.815,5.482,1.329,4.821c16.956-3.563,34.507-4.862,51.748-6.226c16.871-1.335,34.154-2.842,51.082-1.711
				C123.32,319.31,123.3,314.308,120.1,314.095L120.1,314.095z"/>
		</g>
	</g>
	<g display="inline">
		<g>
			<path d="M149.831,443.82c-21.42,19.772-45.327,36.648-69.991,52.107c-2.725,1.707-0.217,6.034,2.522,4.315
				c25.017-15.679,49.277-32.834,71.002-52.889C155.74,445.164,152.196,441.638,149.831,443.82L149.831,443.82z"/>
		</g>
	</g>
	<g display="inline">
		<g>
			<path d="M432.926,475.349c15.434,24.857,47.534,31.521,66.388,53.003c2.131,2.428,5.652-1.123,3.535-3.535
				c-9.101-10.368-21.09-17.495-32.754-24.591c-12.144-7.386-25.169-15.026-32.854-27.4
				C435.546,470.094,431.22,472.602,432.926,475.349L432.926,475.349z"/>
		</g>
	</g>
	<g display="inline">
		<g>
			<path d="M205.006,165.067c-7.14-19.824-11.939-40.74-21.25-59.724c-1.42-2.896-5.731-0.36-4.317,2.522
				c9.113,18.579,13.757,39.125,20.747,58.529C201.269,169.406,206.102,168.108,205.006,165.067L205.006,165.067z"/>
		</g>
	</g>
	<g display="inline">
		<g>
			<path d="M344.5,143.268c3.032-7.457,6.651-14.702,10.247-21.902c1.437-2.875-2.877-5.409-4.317-2.522
				c-3.79,7.59-7.554,15.233-10.752,23.096C338.463,144.927,343.302,146.214,344.5,143.268L344.5,143.268z"/>
		</g>
	</g>
	<g display="inline">
		<g>
			<path d="M446.846,195.76c13.695-7.669,26.802-16.332,40.498-23.999c2.813-1.575,0.293-5.895-2.523-4.317
				c-13.696,7.667-26.803,16.331-40.498,23.999C441.509,193.018,444.029,197.336,446.846,195.76L446.846,195.76z"/>
		</g>
	</g>
	<g display="inline">
		<g>
			<path d="M502.343,302.254c9.124-5.822,19.695-7.33,30.235-8.657c3.154-0.397,3.193-5.402,0-5
				c-11.414,1.438-22.875,3.031-32.76,9.341C497.11,299.666,499.615,303.995,502.343,302.254L502.343,302.254z"/>
		</g>
	</g>
	<g display="inline">
		<g>
			<path d="M479.416,421.002c4.269,1.532,7.7,4.731,11.402,7.246c2.676,1.816,5.174-2.519,2.523-4.317
				c-4.13-2.804-7.836-6.04-12.597-7.751C477.704,415.086,476.406,419.919,479.416,421.002L479.416,421.002z"/>
		</g>
	</g>
	<g display="inline">
		<g>
			<path d="M133.6,381.591c-16.609,0.114-32.997,2.944-49.498,4.5c-3.181,0.301-3.21,5.304,0,5c16.5-1.556,32.887-4.386,49.498-4.5
				C136.823,386.569,136.825,381.569,133.6,381.591L133.6,381.591z"/>
		</g>
	</g>
	<g display="inline">
		<g>
			<path d="M113.265,260.187c-11.271-3.434-21.179-10.251-32.999-12c-3.153-0.466-4.509,4.351-1.329,4.82
				c11.8,1.746,21.735,8.57,32.999,12C115.029,265.95,116.341,261.124,113.265,260.187L113.265,260.187z"/>
		</g>
	</g>
</g>
<g id="Layer_4">
</g>
</svg>
