<?xml version="1.0" encoding="utf-8"?>
<!-- Generator: Adobe Illustrator 16.0.3, SVG Export Plug-In . SVG Version: 6.00 Build 0)  -->
<!DOCTYPE svg PUBLIC "-//W3C//DTD SVG 1.1//EN" "http://www.w3.org/Graphics/SVG/1.1/DTD/svg11.dtd">
<svg version="1.1" xmlns="http://www.w3.org/2000/svg" xmlns:xlink="http://www.w3.org/1999/xlink" x="0px" y="0px" width="416px"
	 height="220px" viewBox="0 0 416 220" enable-background="new 0 0 416 220" xml:space="preserve">
<g id="Layer_3" display="none">
	<rect display="inline" fill="#121212" stroke="#000000" stroke-width="0.5" stroke-miterlimit="10" width="416" height="220"/>
</g>
<g id="Layer_1">
	<path fill="#FFFFFF" stroke="#2B2B2B" stroke-width="3" stroke-miterlimit="10" d="M350.333,128c0,6.627-3.591,12-8.02,12H81.019
		C76.59,140,73,134.627,73,128V91c0-6.627,3.59-12,8.019-12h261.294c4.429,0,8.02,5.373,8.02,12V128z"/>
</g>
<g id="Layer_2">
	<g>
		<g>
			<path d="M78.079,65.369c-10.974-17.366-24.302-34.81-42.782-44.641c-1.422-0.757-2.686,1.401-1.262,2.158
				C52.145,32.52,65.17,49.618,75.921,66.631C76.779,67.99,78.943,66.736,78.079,65.369L78.079,65.369z"/>
		</g>
	</g>
	<g>
		<g>
			<path d="M55.667,82.083c-11.798-1.003-22.107-7.792-33.667-9.956c-1.576-0.294-2.248,2.115-0.665,2.411
				c11.802,2.208,22.271,9.019,34.333,10.044C57.274,84.72,57.261,82.219,55.667,82.083L55.667,82.083z"/>
		</g>
	</g>
	<g>
		<g>
			<path d="M51.703,104.921c-13.44,5.777-28.269,5.991-42.369,9.207c-1.571,0.359-0.905,2.769,0.665,2.411
				c14.35-3.273,29.286-3.58,42.965-9.46C54.442,106.444,53.167,104.291,51.703,104.921L51.703,104.921z"/>
		</g>
	</g>
	<g>
		<g>
			<path d="M57.116,132.45c-14.812,15.243-33.798,25.46-51.747,36.471c-1.372,0.841-0.117,3.004,1.262,2.158
				c18.129-11.121,37.292-21.465,52.253-36.862C60.007,133.061,58.241,131.292,57.116,132.45L57.116,132.45z"/>
		</g>
	</g>
	<g>
		<g>
			<path d="M80.254,153.036c-3.527,7.498-8.354,14.199-13.805,20.414c-1.059,1.207,0.703,2.982,1.768,1.768
				c5.585-6.367,10.58-13.232,14.195-20.919C83.095,152.848,80.94,151.578,80.254,153.036L80.254,153.036z"/>
		</g>
	</g>
	<g>
		<g>
			<path d="M126.461,161.334c-5.361,16.204-15.355,30.377-21.333,46.333c-0.566,1.513,1.851,2.16,2.411,0.665
				c5.978-15.957,15.968-30.12,21.333-46.333C129.38,160.464,126.965,159.811,126.461,161.334L126.461,161.334z"/>
		</g>
	</g>
	<g>
		<g>
			<path d="M198.473,163.003c2.326,16.794-0.403,33.817,1.265,50.659c0.157,1.589,2.659,1.604,2.5,0
				c-1.69-17.071,1.004-34.295-1.354-51.324C200.664,160.748,198.255,161.427,198.473,163.003L198.473,163.003z"/>
		</g>
	</g>
	<g>
		<g>
			<path d="M167.75,167.333c-0.182,10.253-2.864,20.043-1.289,30.333c0.244,1.589,2.652,0.912,2.411-0.665
				c-1.536-10.031,1.2-19.669,1.378-29.667C170.279,165.72,167.779,165.723,167.75,167.333L167.75,167.333z"/>
		</g>
	</g>
	<g>
		<g>
			<path d="M222.915,167.333c-0.009,4.09-0.504,8.291-0.317,12.371c0.222,4.847,1.621,9.851,2.362,14.628
				c0.247,1.589,2.655,0.912,2.411-0.665c-0.719-4.634-2.068-9.487-2.283-14.185c-0.183-4.001,0.319-8.137,0.328-12.149
				C225.418,165.721,222.918,165.722,222.915,167.333L222.915,167.333z"/>
		</g>
	</g>
	<g>
		<g>
			<path d="M108.746,63.369c-5.293-7.551-5.777-17.584-11-25.333c-0.896-1.329-3.063-0.079-2.159,1.262
				c5.225,7.753,5.69,17.759,11,25.333C107.505,65.94,109.674,64.693,108.746,63.369L108.746,63.369z"/>
		</g>
	</g>
	<g>
		<g>
			<path d="M138.917,59c-0.313-15.824-7.78-29.876-14.17-43.964c-0.666-1.466-2.819-0.194-2.159,1.262
				c6.206,13.678,13.525,27.334,13.83,42.702C136.448,60.61,138.948,60.613,138.917,59L138.917,59z"/>
		</g>
	</g>
	<g>
		<g>
			<path d="M173.688,56.667c1.113-8.693-0.206-16.917-1.157-25.526c-0.175-1.584-2.677-1.601-2.5,0
				c0.952,8.615,2.271,16.834,1.157,25.526C170.983,58.263,173.486,58.243,173.688,56.667L173.688,56.667z"/>
		</g>
	</g>
	<g>
		<g>
			<path d="M242.112,57.909c2.007-9.115,2.218-18.4,2.833-27.679c0.107-1.61-2.394-1.6-2.5,0
				c-0.601,9.054-0.785,18.117-2.745,27.014C239.355,58.815,241.765,59.483,242.112,57.909L242.112,57.909z"/>
		</g>
	</g>
	<g>
		<g>
			<path d="M266.873,63.333c5.994-18.117,19.309-32.71,31.678-46.782c1.06-1.206-0.701-2.981-1.768-1.768
				c-12.663,14.406-26.187,29.342-32.322,47.884C263.954,64.203,266.369,64.855,266.873,63.333L266.873,63.333z"/>
		</g>
	</g>
	<g>
		<path fill-rule="evenodd" clip-rule="evenodd" fill="#191919" d="M156.354,118.135c0.534-0.716,1.109-1.405,1.594-2.153
			c1.911-2.949,3.759-5.939,5.704-8.866c0.725-1.091,1.592-2.107,2.506-3.048c0.542-0.557,1.258-1,1.974-1.321
			c2.196-0.987,3.834-0.333,4.468,1.975c0.472,1.716,0.624,3.532,0.8,5.315c0.212,2.142,0.282,4.297,0.455,6.444
			c0.037,0.455,0.255,0.895,0.487,1.665c0.601-0.691,1.119-1.123,1.428-1.671c1.369-2.434,2.621-4.936,4.03-7.345
			c0.963-1.647,2.07-3.219,3.209-4.752c0.438-0.588,1.091-1.07,1.739-1.437c2.477-1.399,4.698-0.603,5.414,2.133
			c0.603,2.304,0.83,4.705,1.22,7.064c0.26,1.575,0.471,3.159,0.781,4.723c0.402,2.023,1.202,3.765,3.231,4.751
			c1.091,0.531,1.14,1.468,0.346,2.381c-1.623,1.866-3.884,1.848-5.462-0.048c-1.418-1.704-1.828-3.798-2.159-5.887
			c-0.462-2.917-0.772-5.857-1.237-8.773c-0.096-0.603-0.586-1.144-0.895-1.713c-0.568,0.325-1.354,0.51-1.668,0.999
			c-1.617,2.513-3.134,5.091-4.645,7.67c-1.068,1.825-2.057,3.697-3.11,5.532c-0.296,0.517-0.664,1-1.052,1.454
			c-0.696,0.813-1.489,1.49-2.678,1.212c-1.273-0.298-2.033-1.206-2.229-2.406c-0.281-1.729-0.346-3.492-0.509-5.239
			c-0.23-2.463-0.444-4.928-0.716-7.387c-0.069-0.617-0.333-1.213-0.587-2.1c-0.724,0.609-1.411,0.988-1.818,1.564
			c-1.838,2.608-3.667,5.227-5.363,7.928c-1.507,2.399-2.884,4.883-4.223,7.381c-0.853,1.592-2.305,1.918-3.829,1.938
			c-0.425,0.005-1.191-0.801-1.235-1.287c-0.228-2.493-0.552-5.03-0.32-7.502c0.48-5.123,1.271-10.217,1.998-15.313
			c0.062-0.435,0.632-1.15,0.923-1.13c0.768,0.055,1.91,0.233,2.18,0.744c0.525,0.994,0.856,2.28,0.738,3.39
			c-0.406,3.807-1.043,7.588-1.584,11.381c-0.076,0.536-0.109,1.077-0.162,1.616C156.183,118.055,156.268,118.095,156.354,118.135z"
			/>
		<path fill-rule="evenodd" clip-rule="evenodd" fill="#191919" d="M121.085,96.764c0.164,2.168-0.253,4.177-2.67,5.21
			c-1.459,0.624-2.444,0.07-2.344-1.503c0.083-1.305,0.416-2.594,0.617-3.893c0.397-2.562-0.758-3.631-3.303-3.046
			c-2.809,0.645-5.117,2.234-7.253,4.053c-5.242,4.461-9.058,9.871-10.564,16.69c-0.433,1.958-0.464,3.968,0.32,5.899
			c1.416,3.483,4.878,4.938,9.359,3.891c2.788-0.651,5.366-1.794,7.73-3.417c0.757-0.52,1.516-1.046,2.322-1.48
			c0.951-0.513,1.568-0.083,1.464,1c-0.036,0.377-0.179,0.794-0.405,1.094c-3.308,4.382-11.537,8.157-17.422,6.604
			c-5.763-1.521-8.692-6.187-7.959-12.426c0.778-6.614,3.993-11.959,8.393-16.725c2.894-3.134,6.042-5.978,10.082-7.546
			c1.5-0.582,3.146-0.871,4.752-1.079C118.39,89.546,121.568,92.743,121.085,96.764z"/>
		<path fill-rule="evenodd" clip-rule="evenodd" fill="#191919" d="M295.273,118.098c-0.753,0.872-1.385,1.815-2.216,2.526
			c-1.931,1.651-3.95,3.2-5.956,4.763c-0.304,0.237-0.722,0.33-1.092,0.478c-5.286,2.115-7.566-2.002-7.291-5.609
			c0.424-5.556,3.161-10,6.683-14.011c1.505-1.714,3.378-3.147,5.245-4.482c0.928-0.663,2.194-0.935,3.351-1.175
			c2.134-0.443,2.987,0.064,4.123,1.955c0.249,0.413,0.78,0.8,1.249,0.91c1.458,0.342,1.828,0.73,1.602,2.223
			c-0.372,2.446-0.823,4.879-1.191,7.326c-0.387,2.578-0.536,5.158,0.075,7.734c0.298,1.253,0.839,2.282,1.979,3
			c1.008,0.633,1.034,1.566,0.194,2.4c-1.629,1.617-3.623,1.424-4.852-0.51c-1.195-1.881-1.499-4.011-1.607-6.185
			c-0.016-0.318-0.022-0.639-0.063-0.954C295.494,118.382,295.393,118.289,295.273,118.098z M296.298,107.602
			c-0.024-0.231-0.045-0.63-0.112-1.022c-0.347-2.024-1.548-2.726-3.45-1.902c-0.827,0.358-1.649,0.856-2.298,1.475
			c-3.106,2.962-5.519,6.434-6.916,10.498c-0.461,1.338-0.501,2.889-0.417,4.324c0.071,1.229,0.977,1.71,2.168,1.319
			c0.891-0.293,1.787-0.726,2.527-1.297c2.712-2.094,4.937-4.648,6.704-7.585C295.547,111.68,296.221,109.818,296.298,107.602z"/>
		<path fill-rule="evenodd" clip-rule="evenodd" fill="#191919" d="M229.238,119.217c0.346-0.557,0.718-1.099,1.034-1.672
			c1.483-2.693,2.847-5.459,4.46-8.071c1.017-1.646,2.209-3.284,3.655-4.545c3.313-2.889,7.035-1.819,8.271,2.391
			c0.726,2.47,0.944,5.088,1.391,7.64c0.241,1.375,0.415,2.767,0.74,4.122c0.424,1.769,1.311,2.174,3.012,1.649
			c0.502-0.155,1.089-0.035,1.638-0.042c-0.033,0.675,0.146,1.459-0.137,2.003c-0.842,1.616-3.068,2.548-4.942,2.259
			c-1.889-0.291-2.872-1.53-3.171-3.288c-0.522-3.066-0.909-6.156-1.408-9.228c-0.159-0.978-0.407-1.961-0.77-2.881
			c-0.682-1.728-1.849-2.06-3.259-0.827c-0.947,0.827-1.795,1.841-2.443,2.918c-1.542,2.564-2.932,5.22-4.399,7.829
			c-0.822,1.462-1.639,2.929-2.533,4.346c-0.42,0.666-0.972,1.268-1.546,1.811c-0.853,0.804-1.876,0.813-2.908,0.365
			c-1.026-0.445-1.386-1.359-1.296-2.358c0.165-1.826,0.537-3.634,0.699-5.46c0.36-4.056,0.587-8.123,0.997-12.173
			c0.102-1.011,0.568-2.047,1.106-2.924c0.249-0.404,1.155-0.729,1.62-0.595c0.579,0.167,1.408,0.823,1.435,1.307
			c0.117,2.055,0.131,4.142-0.105,6.183c-0.326,2.812-0.914,5.594-1.384,8.389c-0.039,0.229-0.042,0.463-0.063,0.695
			C229.033,119.114,229.136,119.166,229.238,119.217z"/>
		<path fill-rule="evenodd" clip-rule="evenodd" fill="#191919" d="M199.644,118.575c0.301-6.684,3.12-12.117,8.227-16.374
			c1.466-1.221,3.204-1.903,5.115-2.169c3.502-0.489,5.704,1.899,4.935,5.37c-0.527,2.379-1.864,4.283-3.732,5.7
			c-2.727,2.068-5.591,3.96-8.454,5.84c-1.037,0.68-2.104,1.176-1.848,2.706c0.265,1.584,0.981,2.956,2.596,3.229
			c1.443,0.245,3.024,0.188,4.457-0.131c2.601-0.579,4.638-2.246,6.539-4.049c0.377-0.357,0.688-0.807,1.116-1.081
			c0.458-0.293,1.017-0.429,1.531-0.633c0.116,0.518,0.332,1.039,0.317,1.554c-0.012,0.453-0.188,0.965-0.453,1.337
			c-3.007,4.239-6.888,7.14-12.263,7.309c-4.96,0.155-7.916-2.803-8.081-7.767C199.636,119.135,199.644,118.855,199.644,118.575z
			 M204.279,114.354c3.525-2.269,6.902-4.153,9.15-7.436c0.323-0.472,0.528-1.082,0.61-1.653c0.189-1.318-0.494-2.015-1.724-1.556
			c-1.155,0.431-2.3,1.106-3.207,1.939C206.65,107.904,205.163,110.761,204.279,114.354z"/>
		<path fill-rule="evenodd" clip-rule="evenodd" fill="#191919" d="M266.932,102.341c2.469-0.2,4.806-0.403,7.145-0.569
			c0.671-0.048,1.382-0.108,2.015,0.061c0.535,0.142,1.239,0.505,1.415,0.95c0.301,0.759,0.085,1.663-0.771,2.043
			c-0.676,0.3-1.445,0.441-2.187,0.528c-2.458,0.286-4.922,0.535-7.388,0.759c-1.079,0.098-1.713,0.5-1.93,1.676
			c-0.659,3.567-1.47,7.107-2.112,10.677c-0.164,0.913-0.032,1.918,0.151,2.844c0.326,1.651,1.829,2.469,3.526,1.696
			c1.611-0.733,3.048-1.851,4.553-2.813c0.502-0.322,0.938-0.772,1.472-1.016c1.048-0.478,1.747,0.054,1.627,1.191
			c-0.037,0.348-0.121,0.739-0.319,1.013c-2.357,3.261-5.229,5.752-9.509,5.842c-3.51,0.074-5.483-1.857-5.721-5.367
			c-0.225-3.325,0.622-6.497,1.307-9.695c0.292-1.366,0.61-2.729,0.842-4.105c0.24-1.417,0.086-1.505-1.316-1.402
			c-0.945,0.07-1.912,0.093-2.847-0.028c-1.106-0.144-1.624-0.963-1.697-2.022c-0.063-0.927,0.324-1.557,1.358-1.564
			c1.399-0.01,2.803-0.067,4.198,0.012c1.066,0.06,1.679-0.376,1.95-1.35c0.673-2.42,1.248-4.871,2.03-7.254
			c0.271-0.826,0.88-1.819,1.606-2.162c1.551-0.731,3.002,0.841,2.553,2.678c-0.512,2.092-1.125,4.16-1.689,6.239
			C267.103,101.535,267.039,101.874,266.932,102.341z"/>
		<path fill-rule="evenodd" clip-rule="evenodd" fill="#191919" d="M145.571,110.842c0.008,7.121-6.071,14.814-12.819,16.236
			c-4.545,0.957-8.708-1.837-9.155-6.46c-0.703-7.283,2.182-13.165,7.715-17.771c1.838-1.531,4.133-2.103,6.523-1.885
			c4.265,0.389,7.497,4.065,7.733,8.681C145.589,110.042,145.571,110.442,145.571,110.842z M141.603,111.255
			c0-0.319,0.024-0.641-0.004-0.958c-0.206-2.358-0.957-4.475-3.379-5.317c-2.485-0.864-4.557,0.205-6.206,2.039
			c-2.011,2.236-3.327,4.893-3.937,7.822c-0.319,1.534-0.497,3.184-0.294,4.723c0.476,3.613,2.834,4.941,6.09,3.312
			C138.595,120.514,141.32,116.65,141.603,111.255z"/>
		<path fill-rule="evenodd" clip-rule="evenodd" fill="#191919" d="M312.938,115.993c0.62-1.283,1.224-2.574,1.863-3.846
			c1.502-2.987,3.475-5.642,5.818-8.01c1.452-1.466,3.12-2.614,5.235-2.935c2.579-0.392,5.156,1.372,5.206,3.714
			c0.015,0.69-0.346,1.74-0.853,1.998c-0.597,0.304-1.699,0.179-2.306-0.202c-2.392-1.5-3.152-1.59-5.152,0.355
			c-4.832,4.699-8.005,10.3-8.957,17.054c-0.078,0.552-0.187,1.103-0.334,1.64c-0.32,1.165-1.151,1.663-2.316,1.69
			c-1.162,0.027-1.713-0.759-1.829-1.7c-0.269-2.17-0.593-4.37-0.504-6.542c0.197-4.82,0.631-9.63,0.978-14.444
			c0.107-1.497,0.671-2.715,2.188-3.262c1.443-0.52,2.642,0.317,2.531,1.843c-0.069,0.944-0.4,1.866-0.553,2.808
			c-0.526,3.248-1.025,6.5-1.535,9.751C312.593,115.934,312.766,115.963,312.938,115.993z"/>
	</g>
	<g>
		<g>
			<path d="M261.461,158.333c1.578,8.211,5.684,15.489,9.508,22.825c4.981,9.556,8.648,19.224,7.781,30.176
				c-0.127,1.608,2.374,1.596,2.5,0c0.749-9.459-1.731-18.127-5.713-26.625c-4.18-8.923-9.777-17.217-11.665-27.041
				C263.568,156.085,261.159,156.757,261.461,158.333L261.461,158.333z"/>
		</g>
	</g>
	<g>
		<g>
			<path d="M304.921,159.964c4.771,6.91,12.062,13.461,12.496,22.369c0.078,1.604,2.579,1.612,2.5,0
				c-0.465-9.513-7.738-16.245-12.838-23.631C306.17,157.386,304.002,158.634,304.921,159.964L304.921,159.964z"/>
		</g>
	</g>
	<g>
		<g>
			<path d="M344.783,154.551c14.525,14.766,24.495,33.445,40.666,46.667c1.236,1.011,3.017-0.747,1.768-1.768
				c-16.166-13.219-26.142-31.902-40.666-46.667C345.419,151.632,343.652,153.401,344.783,154.551L344.783,154.551z"/>
		</g>
	</g>
	<g>
		<g>
			<path fill="#0B0B0B" d="M364.001,137.206c8.563,2.812,15.813,7.96,23.035,13.208c1.307,0.949,2.552-1.221,1.262-2.159
				c-7.407-5.382-14.858-10.578-23.633-13.459C363.129,134.29,362.477,136.705,364.001,137.206L364.001,137.206z"/>
		</g>
	</g>
	<g>
		<g>
			<path fill="#0B0B0B" d="M367.332,107.206c14.71-2.505,29.572-1.292,44.335,0.044c1.606,0.146,1.592-2.356,0-2.5
				c-15.01-1.359-30.049-2.501-44.999,0.044C365.081,105.065,365.756,107.474,367.332,107.206L367.332,107.206z"/>
		</g>
	</g>
	<g>
		<g>
			<path fill="#0B0B0B" d="M361.412,81.298c4.24-5.951,11.345-8.819,17.552-12.219c1.414-0.774,0.152-2.933-1.262-2.158
				c-6.664,3.649-13.904,6.738-18.448,13.115C358.316,81.352,360.485,82.599,361.412,81.298L361.412,81.298z"/>
		</g>
	</g>
	<g>
		<g>
			<path d="M335.538,66.333c2.109-10.415,11.165-19.063,18.406-26.251c7.401-7.348,15.446-13.986,23.273-20.864
				c1.213-1.066-0.562-2.827-1.768-1.768c-8.521,7.488-17.219,14.748-25.218,22.808c-6.888,6.939-15.092,15.47-17.104,25.41
				C332.809,67.242,335.219,67.912,335.538,66.333L335.538,66.333z"/>
		</g>
	</g>
	<g>
		<g>
			<path d="M306.205,63c1.381-9.19,7.308-16.717,13.346-23.449c1.073-1.196-0.689-2.97-1.768-1.768
				c-6.307,7.031-12.546,14.953-13.988,24.551C303.558,63.911,305.967,64.589,306.205,63L306.205,63z"/>
		</g>
	</g>
	<g>
		<g>
			<path d="M209.25,58.667c-2.855-17.621,10.537-33.285,7.021-51.1c-0.313-1.581-2.722-0.91-2.411,0.665
				c3.488,17.668-9.891,33.386-7.021,51.1C207.097,60.92,209.505,60.244,209.25,58.667L209.25,58.667z"/>
		</g>
	</g>
</g>
</svg>
