<?xml version="1.0" encoding="utf-8"?>
<!-- Generator: Adobe Illustrator 16.0.3, SVG Export Plug-In . SVG Version: 6.00 Build 0)  -->
<!DOCTYPE svg PUBLIC "-//W3C//DTD SVG 1.1//EN" "http://www.w3.org/Graphics/SVG/1.1/DTD/svg11.dtd">
<svg version="1.1" id="Layer_1" xmlns="http://www.w3.org/2000/svg" xmlns:xlink="http://www.w3.org/1999/xlink" x="0px" y="0px"
	 width="209.99px" height="700.574px" viewBox="0 0 209.99 700.574" enable-background="new 0 0 209.99 700.574"
	 xml:space="preserve">
<g id="Layer_1_1_">
</g>
<g id="Layer_6">
	<g>
		<path d="M103.505,125.094c-17.281,8.256-32.896,15.716-48.511,23.175c-0.416-0.11-0.832-0.222-1.245-0.334
			c17.922-28.282,35.846-56.563,53.768-84.846c0.467-0.064,0.932-0.126,1.396-0.19c17.965,28.31,35.932,56.617,53.896,84.927
			c-0.381,0.145-0.765,0.289-1.146,0.435c-15.792-7.521-31.583-15.04-48.188-22.948c-0.174,1.456-0.386,2.407-0.386,3.358
			c0,67.533,0.021,135.066,0.027,202.601c0.005,49.056,0.038,98.11-0.134,147.166c-0.01,2.849,1.591,4.826,5.59,6.76
			c15.244,7.371,30.041,14.986,45.344,22.323c4.277,2.05,5.997,4.165,5.611,7.094c-0.408,3.108-0.092,6.246-0.092,10.216
			c-21.063-9.587-40.906-18.618-61.133-27.824c-20.141,9.104-40.082,18.117-61.099,27.616c0-4.937-0.205-9.288,0.164-13.624
			c0.079-0.929,1.977-1.951,3.483-2.69c15.791-7.731,31.546-15.485,47.621-23.059c3.79-1.785,5.118-3.587,5.112-6.156
			c-0.118-42.605-0.061-85.211-0.061-127.815c0-73.75-0.012-147.5-0.018-221.25C103.505,128.721,103.505,127.417,103.505,125.094z"
			/>
		<path d="M169.438,560.485c-21.105-9.597-40.836-18.57-61.15-27.808c-20.044,9.061-39.911,18.038-61.077,27.604
			c0-5.152-0.071-9.481,0.085-13.808c0.02-0.568,1.001-1.239,1.888-1.672c19.599-9.566,39.247-19.104,59.391-28.896
			c7.982,3.929,15.722,7.723,23.432,11.531c10.942,5.405,21.754,10.881,32.861,16.195c3.34,1.599,4.896,3.229,4.662,5.59
			C169.183,552.693,169.438,556.178,169.438,560.485z"/>
		<path d="M108.321,568.358c-20.387,9.203-40.137,18.119-61.114,27.59c0-5.073-0.093-9.318,0.095-13.563
			c0.029-0.668,1.063-1.467,2.077-1.96c19.587-9.583,39.241-19.128,59.222-28.848c13.418,6.617,26.543,13.084,39.654,19.558
			c3.016,1.488,5.58,3.343,9.051,4.441c15.418,4.888,12.565,12.399,11.646,20.377C148.324,586.564,128.503,577.544,108.321,568.358z
			"/>
		<path d="M108.563,587.253c9.252,4.546,18.153,8.894,27.004,13.27c10.306,5.098,20.634,10.183,30.771,15.367
			c1.534,0.785,2.847,2.065,2.94,3.147c0.351,3.944,0.14,7.902,0.14,12.75c-20.854-9.479-40.651-18.476-61.092-27.764
			c-19.992,9.021-39.893,17.998-61.134,27.582c0-5.173-0.052-9.516,0.071-13.854c0.013-0.481,0.829-1.057,1.578-1.423
			C68.609,606.682,88.418,597.052,108.563,587.253z"/>
	</g>
</g>
<g id="Layer_2">
	<rect x="96.34" y="123.071" width="24.372" height="368.531"/>
</g>
<g id="Layer_3" display="none">
	<path display="inline" fill="#EDEDED" d="M109.709,52.189C93.687,67.279-52.77,204.044-100.29,253.546
		c-9.208,9.592-16.064,18.196-17.869,24.099c-2.54,8.3,0,17.904,35.036,12.629c54.747-8.245,103.106-15.422,103.106-15.422h179.234
		c0,0,48.435,7.178,103.269,15.422c35.09,5.275,37.633-4.33,35.09-12.629c-1.809-5.901-8.674-14.506-17.896-24.099L109.709,52.189z"
		/>
</g>
<g id="Layer_4" display="none">
</g>
<g id="Layer_5" display="none">
	<rect x="82.352" y="278.279" display="inline" fill="none" width="79.534" height="404.669"/>
	<text transform="matrix(1.2938 0 0 1 82.3521 332.0608)" display="inline" font-family="'Verdana'" font-size="70.7652">P</text>
	<text transform="matrix(1.2938 0 0 1 82.3521 416.9788)" display="inline" font-family="'Verdana'" font-size="70.7652">U</text>
	<text transform="matrix(1.2938 0 0 1 82.3521 501.8967)" display="inline" font-family="'Verdana'" font-size="70.7652">S</text>
	<text transform="matrix(1.2938 0 0 1 82.3521 586.8147)" display="inline" font-family="'Verdana'" font-size="70.7652">H</text>
</g>
</svg>
