<?xml version="1.0" encoding="utf-8"?>
<!-- Generator: Adobe Illustrator 16.0.3, SVG Export Plug-In . SVG Version: 6.00 Build 0)  -->
<!DOCTYPE svg PUBLIC "-//W3C//DTD SVG 1.1//EN" "http://www.w3.org/Graphics/SVG/1.1/DTD/svg11.dtd">
<svg version="1.1" id="Layer_1" xmlns="http://www.w3.org/2000/svg" xmlns:xlink="http://www.w3.org/1999/xlink" x="0px" y="0px"
	 width="367.917px" height="208.137px" viewBox="0 0 367.917 208.137" enable-background="new 0 0 367.917 208.137"
	 xml:space="preserve">
<g>
	<path fill-rule="evenodd" clip-rule="evenodd" d="M347.204,26.811c0,58.263,0,90.053,0,148.183c1.416,0,2.996,0.073,4.568-0.012
		c12.973-0.704-3.683-1.153,9.286-1.915c3.404-0.199,6.752-0.113,6.855,4.347c0.096,4.172-2.631,5.525-6.551,5.756
		c-14.605,0.859,0.429,1.662-15.388,2.732c0,7.121,2.063,8.448,2.008,15.39c-0.01,1.484,0.217,3.605-0.617,4.311
		c-1.592,1.348-4.043,2.82-5.807,2.486c-1.563-0.293-3.727-2.926-3.795-4.602c-0.23-5.637-1.68-5.69-1.402-11.347
		c0.088-1.785,0.191-3.57,0.324-6.016c-116.975,5.869-233.816,1.648-306.004,0.768c0,5.766,0.062,11.191-0.021,16.615
		c-0.057,3.646,1.685-3.926,1.191-0.326c-0.155,1.133-1.728,2.07-2.651,3.096c-1.086-1.039-3.051-2.029-3.113-3.127
		c-0.387-6.789-2.284-2.359-2.209-9.162c0.084-7.633,0.207-7.578-7.325-7.834c-9.319-0.316,3.913,2.102-5.397,1.605
		c-2.7-0.145-5.37-0.869-8.054-1.326c0.033-0.582,0.067-1.164,0.102-1.746c14.266,0,5.979-2.756,20.964-2.756
		c0-3.098-0.022-5.041,0.004-6.984c0.28-20.325,0.533-40.652,0.916-60.976c0.034-1.817,0.924-3.619,1.416-5.429
		c0.717,0.135,1.433,0.271,2.149,0.405c0.512,23.848,1.024,47.695,1.553,72.297c94.862,1.559,211.825,0.164,306.948-5.365
		c2.938-58.302,3.182-90.71,2.832-149.548c-9.834-0.614-19.391-0.226-28.949-0.806c-48.881-2.962-97.764,0.134-146.639-2.89
		c-37.121-2.296-96.789-5.925-133.92-3.05c-0.818,0.063-1.63,0.218-3.219,0.437c0,2.096-0.019,4.192,0.003,6.289
		c0.307,30.825,0.645,29.019,0.876,59.845c0.017,2.206-0.74,4.419-1.137,6.629c-0.501-0.071-1.003-0.143-1.504-0.213
		c0-34.851,0-37.07,0-72.748c-16.246,1.55-9.554-1.611-25.33-0.105C0.11,19.263,0.056,18.805,0,18.348
		c15.438-5.157,9.349-0.081,25.854-2.451c0-8.903-0.734-6.356-0.734-14.972c0.405-0.002,0.811-0.005,1.216-0.007
		c0,8.478,0.734,5.792,0.734,14.96c70.209-4.123,188.648-4.988,312.358,0.28c0.703-11.534,0.662-4.712,1.355-16.053
		c0.67-0.035,1.34-0.069,2.012-0.104c1.182,11.306,3.098,4.449,4.313,16.067c6.682,0.763,8.2-0.087,15.085,0.751
		c2.496,0.304,5.314,0.535,5.125,4.092c-0.186,3.506-2.838,4.234-5.67,4.271C355.177,25.267,354.081,26.811,347.204,26.811z"/>
	<path fill-rule="evenodd" clip-rule="evenodd" d="M31.852,3.582c3.962-0.527,7.919-1.467,11.886-1.513
		c23.979-0.28,75.031-0.083,99.011,0.022c59.62,0.261,119.239,0.729,178.858,1.118c0.998,0.006,2.203-0.277,2.951,0.173
		c1.486,0.892,2.723,2.202,4.061,3.339c-1.461,1.202-2.824,2.572-4.43,3.53c-0.736,0.439-1.953,0.073-2.953,0.066
		c-76.271-0.563-152.543-1.096-228.814-1.73C82.62,8.505,45.751,7.453,35.957,7c-1.36-0.063-2.691-0.758-4.037-1.161
		C31.897,5.086,31.874,4.334,31.852,3.582z"/>
	<path fill-rule="evenodd" clip-rule="evenodd" d="M187.022,198.385c35.186-1.01,92.133-3.06,134.746-4.28
		c1.666-0.049,3.336-0.021,4.996-0.139c2.793-0.195,5.07,0.934,4.406,3.775c-0.387,1.654-2.754,3.85-4.42,4.027
		c-6.443,0.686-27.293,1.53-33.787,1.718c-69.123,1.996-138.227,1.693-207.298-1.908c-7.646-0.398-37.662-1.539-45.293-2.176
		c-1.637-0.137-3.345-0.439-4.817-1.107c-0.84-0.383-1.569-1.605-1.749-2.563c-0.079-0.42,1.294-1.539,2.081-1.619
		c3.13-0.32,28.677-0.105,31.817,0.004C104.986,195.408,142.267,196.771,187.022,198.385z"/>
	<path fill-rule="evenodd" clip-rule="evenodd" d="M356.86,45.941c0.924,7.485,2.145,14.947,2.721,22.458
		c3.186,41.618,2.031,50.583-0.906,92.162c-0.184,2.599-0.344,5.451-3.898,5.089c-3.438-0.352-2.598-3.157-2.422-5.463
		c3.17-41.574,3.182-50.568,1.965-92.212c-0.146-4.994-0.336-9.992-0.266-14.985c0.033-2.299,0.643-4.59,0.992-6.885
		C355.649,46.051,356.254,45.997,356.86,45.941z"/>
	<path fill-rule="evenodd" clip-rule="evenodd" d="M12.18,32.182c0.934,13.21,2.195,26.407,2.722,39.633
		c0.728,18.288,0.891,3.967,1.321,22.267c0.077,3.277-0.144,6.057-4.884,3.685c-0.569,5.115,8.138,6.826,4.151,12.928
		c-3.804-3.601-7.292-6.671-7.188-13.04C8.728,71.699,8.375,78.363,8.58,52.403c0.053-6.735,1.086-13.462,1.669-20.193
		C10.893,32.2,11.536,32.191,12.18,32.182z"/>
	<path fill-rule="evenodd" clip-rule="evenodd" d="M8.951,107.844c5.46,4.21,7.838,8.885,7.583,15.609
		c-0.534,14.11-0.155,28.254-0.184,42.384c-0.004,2.159,0.423,4.604-0.437,6.396c-0.906,1.892-3.114,3.159-4.754,4.699
		c-1.264-1.656-3.623-3.312-3.621-4.967c0.014-16.451-0.414-32.987,1.237-49.302c0.471-4.655,3.479-8.698-0.354-13.13
		C8.263,109.347,8.683,108.658,8.951,107.844z"/>
</g>
</svg>
